<svg id="Layer_1" data-name="Layer 1" xmlns="http://www.w3.org/2000/svg" viewBox="0 0 720 390">
  <title>map-lines-exp</title>
  <g>
    <path d="M686.26,89.82c-.79-.18-.9,1.06-2,.74l-1-.63c-1.22.93-1.31,2.48-2.38,3.88-.45.25-1.42.4-2,1.28.13.16.3.5.39.48a2.63,2.63,0,0,1,2.81,1.28l-1.5,1.41c.14.88,1,1.16,1.41,1.79a3,3,0,0,1-.08,1.9c-1,.69-2.19-.26-3.08.59-.35,1.26,1.49,2,.59,3.63-1.4.2-3.15.12-4.67,1.26l-.14,2.66c-3.07,1.11-3.49,5-6.85,6.23-1.24-2.48-1.57-5.2-2.27-7.87-.75-2.82-.54-5.56-.72-8.31,1.36-1.33,2.77-2.58,3.36-4.39l2.26-.26c3.18-4.09,7.68-6.85,12.08-10.32-3.43-.79-4.77,2.24-7.3,3.09A5.87,5.87,0,0,1,674,86.92a4,4,0,0,1,0-1.62c-.56-.86-2,.06-2.05-1.39-1.28.5-2.1,1.39-3.24,1-2,1.48-2.61,4.35-5.3,5,.19,1,1,1.33,1.49,2l-1,1.08c-1.36.6-3.05-.54-4.2.89-1.18-1.68-2.25.32-3.37.12-.89-.58-.12-1.58-.88-2.61l-10.92,1.54-.78-1.42a11.15,11.15,0,0,0-4,.64c-1.09.46-2,1.14-3.06,1.56-2.53,1-3,4.24-5.69,5-2.21,2.74-5.3,4.36-8.14,6.33,1,1,2.17.16,3.12.59.32,1.82,1.92,1.82,2.87,2.48.84-.39.56-1.05.84-1.51.87-.48,1.83-.16,2.75-.21l2.91,2.91v3.09c1.26-1.15.44-2.33.88-3.26l2.4-1.14c.24.12.6.17.68.34,1.22,2.82,1.21,2.82.23,4.82l3.23,8.43c-1.38,1.1-1.79-.69-2.77-.39-.64,1-1.63,2-1.42,3.31l2.37,2.15v2.51c-1.06.72-1.53-.2-1.81-.46-1.28-.37-1.53,1.07-2.63.66l-1.12-1.05c.24-.4.73-.83.69-1.2-.51-4.15,1-8.2.86-12.1l-1.26-1.26c-1.7,2.93-1.06,6.3-2.56,9.82-3.68,5.3-8,11-13.64,14.73-2,.62-2.88-1.43-4.95-.07l-3.08,3.09c.63,3.14-2.77,3.21-4.16,5,1.13,1.29,2.68,2.24,3.08,4.1.62,1.4-.69,3.25,1.15,4.25l-1.32,2.84c-2.18-.64-3.79,1.08-5.83,1.77-1-2.34.49-5-1.34-6.94l1-1.16c-1.14-.53-2.76-.13-3.08-1-.73-1.58.82-1.8.47-3l-1-1.08c-2.75-.9-4.53,1.21-6.44,2.46-1.48-.94-.3-2.15-1.14-3.35l2.09-1.17c-.54-.72-1.14-.7-1.32-.5-.92,1.06-1.9,1.91-3.52,1.55-.21,2.12-1.45,2.83-3.33,2.46,0,1.48,1.28.55,1.8,1.37.4.63.12,1.69,1.12,2,1.29.16,1.49-1.46,2.84-1.71.9,1.55,4.92.06,3.78,4.1l-2.73.13L589.86,157c2.46,1.5,2.72,4.61,5,6.54,0,.68,0,1.48,0,2.28a1.64,1.64,0,0,1-.81,1.8c.52.74,1.31.15,1.52.83-.07,4-4.32,6-5.09,10.16-1,1.07-3,2-3.69,3.39-1,1.78-3.17,1.52-3.7,3.43h-5.35l-.28,1.26A19.05,19.05,0,0,0,571,189l1.78,1.9c-1.14,1.72-2,3.72-4.35,4.33-.79-.08-1-.88-1.57-1.23v-2.48c.65-.64,1.77-.56,2.27-1.47,0-.75-1-1.14-.76-2-.87-.61-1.86,0-2.71-.36-1,2.05-3.24,2.67-4.3,4.47,1.16,2.65,3.33,4.57,5.37,6.6,1.76,1.75,2,4.13,2.57,6.34a11.45,11.45,0,0,1,0,2.82,6.72,6.72,0,0,0-.81,1,2,2,0,0,0-.08.78c-1.62.92-3.53,1.33-4.88,2.71a27.43,27.43,0,0,1-4.36,3.62c-1.07-1.37-.25-2.8-.68-4-.59-.59-1.32-.15-2-.31.1-1.47-1.75-1.34-2-2.38-.4-1.52-1.43-1.58-2.71-1.82A2.36,2.36,0,0,1,550,205c.13,3-2.56,5-2.1,7.88a3.64,3.64,0,0,1,2.4,3c.17.85.23,1.75,1,2,2.41.92,3.54,3.26,5.57,4.63v3.87l2,3.8c-3.35,1.43-5.09-1.54-7.57-2.32,0-.36.07-.84-.12-1.12-1.49-2.13-2.12-4.62-3-7-.67-1.92-2.37-2.86-3.65-4.53a16.78,16.78,0,0,0,.9-6c-.19-2.35.35-4.76-1.4-6.87-.49-.59-.3-1.81-.25-2.74a1.63,1.63,0,0,0-.7-1.37l-2.32,2.32c-1.93-.31-3.25-.17-4.36-1.66V193.9l-1.55-.55c-.43-.77,0-1.25.72-1.79-2.93-1.08-4.06-3.4-4.35-6.11-1.46-.43-1.47.49-1.67,1.6-2.36-.57-4.4,1.45-6.92.67-.44,2.34-1.09,4.33-3.94,4.26-1.89,1.47-3.34,3.46-5.29,5-1.64,1.27-3.06,2.81-5.16,3.67.56,3.6-.37,7.13-1,11.17-.13.22-1.93-.39-1.24,1.34,1,.15,1.65-1.38,2.83-.41,1.38,2,3.15,4,2.79,6.86-.68,1.33-2.37,1-3.19,2.56a9.51,9.51,0,0,1-2.52-7.74c-1-.27-1.49-.34-1.71.66-.25,1.15-1,1.88-2.94,1.42a7.91,7.91,0,0,1-2.11-3.39,77.9,77.9,0,0,0-5.08-11.88,18.39,18.39,0,0,1-2.12-7.75,8.54,8.54,0,0,0-.84-3.13c-.08-.76.84-.81.5-1.73-1.58.34-3.09,1.57-5.36.28l-2.2-2.41c-.58-.57-.38-1.44-1.05-2.32s-2.34-.72-2.64-2.1c-.25-1.17-1.45-1.56-2-2.45a57,57,0,0,1-6.18-.06c-1.45-.16-2.64,1.31-3.74.79-1.67-.78-3.62-.14-4.94-1-1.47-.91-2.91-.18-4-.67-.8-.38-.08-1.23-.84-1.46-.12.1-.41.24-.42.4a5.68,5.68,0,0,0,1.93,4.35l1.81.13,3.58,3.58c-1.26,1.58-1.67,3.83-3.95,4.85v2.51c-.67.85-1.42.41-2.51.65a8.11,8.11,0,0,1-1.95,2.07,2.67,2.67,0,0,0-1.69,1.94,8.89,8.89,0,0,1-2.36,0c-1.13-.32-1.73.64-2.51,1-1,.43-.86,2.35-2.65,2.43a16,16,0,0,0-3.65,1.08c-1.72.53-2.71,2.56-4.8,2.33-.94,1.47-2.77.05-4,1.36a4,4,0,0,1-4,.86c-1,1.42-.33,2.35.69,3.26,5.2.88,9.85-2.11,15.09-2.45.81,3.22-.52,5.87-2,8.46-.38.67-.84,1.26-1.2,2-3.29,6.39-4.75,7.88-11.22,13a27.57,27.57,0,0,0-5.19,5.27c-.93,1.28-2.42,1.86-3.18,3.12a36.82,36.82,0,0,0-1.81,4.18c-.16.35-.61.61-.67,1-.11.67-.31,1.56,0,2,1.91,2.74-.76,7,3,8.82.83,2.94-.44,5.87.9,8.83-.13.53-1.36,1.08-.42,2.09-1.89,1.92-3.43,4-6.38,4-1.92,1.79-3.57,4-6.09,5.07.55,3.18,2,6.06,1.49,9.32-1.24,2.12-3.86,2.48-5.65,3.9-.2,2.33.46,4.72-1.4,6.55-.94.92-1.56,2.23-2.42,3.06-2.47,2.36-3.67,5.94-7.13,7.36-.7.29-1.18,1.12-1.92,1.86-1.66-.7-3.06.85-4.82.81s-3.77-.71-5.19.29c-1.57,1.11-3.43-.31-4.92,1.23-.89.92-2.08-.74-3.24-.85a18.87,18.87,0,0,1-.5-5.09c-.54-2-2-3.6-2.38-5.82s-2.43-3.42-3.29-4.31c-2.18-3.8-.91-7.68-3.13-10.65l.95-1.08c-2.31-3.19-3.33-7.13-6-10.47.29-1.65-.29-3.47.41-5.36.62-1.67,1.71-3.3,1.17-5.25l2.47-2.26V255l-1.66-1.84a4.06,4.06,0,0,0,.25-4,33.91,33.91,0,0,0-6.63-10.41c-1-1.09-1-2.9-2.74-3.36l1.83-1.77c-.78-2.23,1.2-4.33.76-6.62-1.3-1.44-1.81,1.22-3.12.21-.47-.39,0-1.13-.15-1.75.27-.83,1.33-.2,1.66-.94a2.33,2.33,0,0,0-2.64-.31c-1.6,1.56-2.92.2-4.71-.31-.51-.32.25-1.31-.21-2-.58-1-1.88-.92-2.45-1.58-4.4.53-8.63,1.36-12.58,3.55-1.92-.52-3.92-2-6.07-1.32-1.64.54-3.75.48-4.73,2.59-4.59-2.11-8.39-5.26-12.48-8-1-4.78-5-7.11-8.52-10.41a1.94,1.94,0,0,1,.84-2c-1.14-.68-.71-2.23-1.75-2.72.46-1.43,2.2-1.82,1.74-3.33-.4-1.33,1.09-2.05.89-3.38-.18-1.16,0-2.39-.84-3.2-.16-.81.6-.93.72-1.44l-1.51-1.51v-3.33c.47-.88,1.43-1.56,1.93-2.73.79-1.85,2.49-3.43,2.73-5.43s3.17-1.22,2.69-3.37c1.05-1,1.83-2,3.63-2.24s3.15-1.67,3.78-4.46c.05-4.77,1.19-6.51,6.27-8.67l2-4.12c-.25-.75-1.09-1.2-1-2.24h-5.69c.95-2.45-1.49-4.41-.26-6.85,1.09-2.16-.59-4.81,1-7L319,137.3a3.06,3.06,0,0,1,.33-.56,5.27,5.27,0,0,1,4.68-1.61c2.09.2,4.25-.52,6.29.75a1.49,1.49,0,0,0,2.16-.67c1.24-.31,1.45,1.27,2.53.71.81-2.18,1.54-4.42,1.13-6.87-.14-.15-.3-.48-.48-.49-1.6-.1-1.15-2.23-2.61-2.52A12.35,12.35,0,0,1,329.8,125c-1.1-.57-1.14-1.67-1-2.77,2.18-.1,4.07-2.69,6.42,0a4.31,4.31,0,0,1-.63-3.24c2-1.43,2.73.93,3.6,1.3,1.62,0,1-1.07,1.57-1.51l1.82-.22c.51-.28.28-.75.41-1.35-5.14-.94-9.76,1.07-14.49,2.26-.7-.52-.28-1.27-.43-2.06a6.54,6.54,0,0,0,3.29-2.51c-.59-.77-1.57-.06-2.15-.44-.8-1.41.42-1.83,1-2.4s0-1.61.65-2.38l1.83-.17c.45-.27.31-.71.35-1.1.13-1.15-.94-1.81-1.1-2.84-.12,0-.25,0-.3.07-.37.43-.79.83-1.38.62-.35-.13-.62-.5-.93-.77-.85.54-.09,1.53-.64,2.3l-1.11.23c-.74.82,1.09,1,.58,1.95-.33.65-.06,1.61-.06,2.66l-8.06,2.86c-1.58-1.39-1.58-1.39-1.83-3l1.63-1.73-1.54-1.54v-2.68c.91-.56,1.88-.17,2.81-.29.24-1.44,1.45-2.17,2.35-3.21.86.73,1.74,1.28,2.54-.06a2.17,2.17,0,0,0,2.11.8.58.58,0,0,0,.49.73c.06,0,.26-.18.24-.24a.58.58,0,0,0-.73-.49,8.41,8.41,0,0,1,0-1.24c.16-1.12-1.44-1.88-.8-2.93,1.21-2,.47-4.77,2.91-6.46.38-.16.42.78.91.73,1,.37,1.19-1.23,2.18-.76.85.41.83.79-.17,3,.87.59,1.85.16,2.83.3.66.95.34,2,.26,3l-1.5,1.5a3.1,3.1,0,0,0,2.22,1.46c.34,1.34.16,3.06,2.32,3.14l2.51,5c.39.41,2.52-.88,2.74,1.33.22,1.07-1,1.37-1.63,2.38l1.33,1.1a6.36,6.36,0,0,0,4.56-3.06c2.16-3.16,5.25-4.21,8.88-4.5.6-3.26-1.62-6.28-.48-9.59.73-.54,2.12.36,2.74-1,.49-1.12,1.59-.69,2.83-.83a6.69,6.69,0,0,0,1.1,4.89h1.9c1.42-2.22-1.48-2.87-1.51-4.7,0-1.39-1.17-2.76-1.82-4.14-2.12.66-3.38,2.42-4.94,3.87-2.17.53-4.1-.06-6.12-1.63.57-1.65-2.32-3.15-.25-5.16-1.47-1.78-.39-3.88-.76-5.54,1-2.36,4.34-2,4.38-4.77a1.35,1.35,0,0,1,1.61.57c3.49-1.19,5.13-4.78,8.33-6.36a2.21,2.21,0,0,0,1.37-2.29c-.18-1.54,2.63-1.9,1.46-3.81,1.5-.6,2.68-1.33,3-3h1.63a54.17,54.17,0,0,1,6.67-7.43c.64.88,1.54.92,2.66.71.59-.24,0-1.26,1.12-1.69a29.2,29.2,0,0,1,3.94-1.35,10.33,10.33,0,0,0,3.89-1.7c1-.67,2.25-1.14,3.44-1.8,1,.51,2.17.65,3,1.58.77-.12.37-.81.82-1.5a23.63,23.63,0,0,1,8.08,2.63L403,55.68c1.29,1,2.23,0,3.54-.59.93.91,1.84,2.11,3.36,2.42,2.42.27,5-.18,8.21,1.75A8.36,8.36,0,0,0,423.2,62c1.67.19,2.22,1.26,3.6,4.12-.55,1.25-2.13,1.68-2.47,3.09-.62.12-1.58-.41-1.65.82-1.65,0-3.5.48-4.89-.12-1.81-.79-3.84-.37-5.76-1.58a2.7,2.7,0,0,1,.47,3.26c-.6,1.23.55,2.23.52,3.38.87,0,1.56,0,2.1,0,.9,1.2,1.72,2.28,3.41.95-1.35.38-1.91-1.41-3.41-.95.24-.82-.09-1.64.33-2.27,1.57-.79,2.91-.08,4.09.62a3.83,3.83,0,0,0,4,.4c-1.47-1-.64-2.49-.86-3.73.62-.12,1.58.41,1.65-.82,1.33.33,1.95-.67,2.58-1.4,1.69-.71,3.12-.06,4.53,1,.13-2.57.13-2.57-1.24-4.25l1.47-1.47A2.79,2.79,0,0,1,431,60.4c1.33-.56,2.84,0,4.55-.33l1.92,2.69V64c-.9.78-2.13-.14-3.36.82l1.5.59-.34.44h3.63c.44-.71.52-1.82,1.42-2.2,3.84-1.59,7.59-3.48,11.55-4.34,1,.74.06,1.78.81,2.42,1.42.56,1.68-1,2.67-1.53,2.35,0,5,.44,6.63-1.72a2.85,2.85,0,0,1,2.18,2.4c1,0,.35-.75.47-.85.42-.8,1.09-.52,1.55-.82.17-.78-.93-1.08-.69-2a4,4,0,0,1,1.1-1.72c3.09-1.09,5.7,1,8.52,1.67,2,.48,4.3,1.11,5.73,3,.15.2.79,0,1.2,0a.58.58,0,0,0,.49.73c.06,0,.26-.18.24-.24a.58.58,0,0,0-.73-.49c.18-2.39-2-2.78-3.3-3.91-.18-1.25,1.3-1.31,1.46-2.42l-1.44-1.53V50.67a8.28,8.28,0,0,0,5.15-6.9h8.62c.78,2.18-.37,3.79-1.52,5.56l1.95,3.8c-1.24,1.74-1.19,3.72-.93,5.87l1.54,1.62c.3,3.4-3.11,4.7-4.71,8.2,2.77-1.84,4.82-3,6.28-4.92.43-1.36-.62-3,.89-4.16-.7-.57-1.76-.58-2.27-1.45-.62-1.88,0-3.6.78-5.23-.25-1.57-2.67-2.05-1.68-4,.5-1.3,2.25-1.14,3-2.3.63-.93-.33-2.17.56-3,1-.29,1.41.61,2,1.09.53,1.51-.26,2.79-.83,4.05.76.65,1.07,1.83,2.49,1.19-.36-.86-1.18-1.69-.49-2.87a1.87,1.87,0,0,1,2.66.64c0-1.53,1.5-1.54,2.26-2.28,2,.32,3.61,1.57,5.35,2.52.47.26.82.67,1.42.56.38-.07.85.22,1.14-.39-.77-1.43-2.42-1.53-3.81-2.32-.44-.61-.2-1.46-.16-2.23s-1.08-.9-.9-1.52c.24-1.35,1.78-.74,2.09-1.78h7c1.71,0,3.19-1.39,5-.82a.58.58,0,0,0,.49.73c.06,0,.26-.18.24-.24a.58.58,0,0,0-.73-.49c-.17-.88-1.16-1.5-.69-3,1.33-1.87,3.81-2.87,6.24-4.42,1.47-.3,3.26,0,5.13-.7,1.59-.64,3.53-.27,5.18-1.47a3.77,3.77,0,0,1,3.82,0,4.59,4.59,0,0,0,4.76-.21c.36.41.72.82,1.35.68s.53-.8.63-1.34c1-.62,2.74.11,3.07-1.7l-.66-.66c2.12-2.29,5.17-2.59,7.9-3.54.43,1.26,2,.21,2.71.94.39.88-.22,1.29-.74,1.79,1.21.87,2.64.06,3.88.55.54.58.1,1.31.33,2.08,3-1.13,6.22-.31,9.52-.64.58,2.24,3.73,1.06,4.34,3,.2,1-.52,1.2-.71,1.68.32.4.9.65.83,1-1.18,3.35-5.12,2.63-6.79,4.94,1.65,2.5,4.52,1.24,6.64,2.49,2.64-1.4,5.79-.3,8.73-.75.48.81,1.65,1,1.12,2.2,1.32.84,3.16-.39,4,1.24,2.19-1,2.19-1,4.84-.08.71-.92-.08-2.56,2.1-3.32,2.52-.33,5.51,1.6,8.45.85,1.25.89,1.61,1.82,1.23,3l-3.19,1.5c1.15,1.5,3.07,2,4.3,3.4,1.06,1.24,1.93,3.13,4.27,2.81.92-1.25,1.18-3,2.55-4.1,1.18-.17,1.56.9,2.36,1.51a6,6,0,0,0,5-.91l3.87,1.95c.85-.35.61-1,.83-1.44,1.1-.94,2.07.12,3.1.33l.08-.91c-.24-.88-1.31-.22-1.64-.94V45.75c.89-1.06,2.26,0,3.37-.78a5.91,5.91,0,0,1,3.15-1.34c1.19-.07,1.84.94,3,.93s2.47-.62,3.24.83c.56-.6,1-1.18,2.09-.61v3.94l1.58-2.49c.59,0,.72-.07.86-.07H652c1.29.67,1.38,1.89,1.5,3.21l2.78.15c.93.49,1.1,1.45,1.51,2.43a30.15,30.15,0,0,0,5.37-.69c2.27-.68,4.9-.3,7.36-.12,2.28.17,3.81,1.95,4.22,4.37.27.68.94.4,1.36.66a9.07,9.07,0,0,1,1,.79,7.24,7.24,0,0,1,6.59-.76,9.38,9.38,0,0,0,6.88-.37c.87,1.5,3.1,1.4,3.39,3.36a2.39,2.39,0,0,0,3-1.08l-1.55-1.74c-.13-1.08.7-1.3,1.17-2,1.69.25,3.46-.28,5.31.75,1,.58,2.69.12,4.06.1a19.3,19.3,0,0,1,10.7,3.37V73.92c-1.56-.18-2.76,1.52-5.06.87,1,1.41,3,1.29,2.72,2.9s1.54,1.8,1.68,3c-1.82,2.11-2,2.15-5,.79-2.38,1.59-5.29,2.25-7.87,3.58a20.4,20.4,0,0,0-7.31,5.67l-1.17-1.64h-4.71l-1.35,1.35c-.81,0-1.86.87-2.22-.67a.58.58,0,0,0,.73-.49c0-.06-.18-.26-.24-.24A.58.58,0,0,0,686.26,89.82Zm-173-37.88a.57.57,0,0,0,.49.73c.06,0,.26-.18.24-.24-.09-.38-.33-.56-.6,0-.28-1,.24-1.71-.62-2C512.25,50.92,512.32,51.44,513.29,51.94Zm-61,89.78a.57.57,0,0,0,.49.73c.06,0,.26-.18.24-.24a.54.54,0,0,0-.72-.46c-.17-.56.37-1.3-.5-1.61-.31.47-1,.67-1,1.5C451.36,141.67,451.85,141.7,452.34,141.72Zm-23.06,63.42a.57.57,0,0,0,.49.73c.06,0,.26-.18.24-.24-.09-.38-.33-.56-.94-.49.56-2.69-1.36-5.14-.5-7.91-3.29-1.63-2.8-6.46-6.62-7.25-1.07-2.68-1.19-5.47-3-7.78A3.43,3.43,0,0,1,416.8,180c-1-2.51-2.2-5.14-4.53-7-.28,1.24-1.65.46-1.95,1.41.46,2.47,2.72,4,3.36,6.42s2.56,4.43,4.14,6.79v5.14c3.25,1.07,4.26,3.6,4.15,6.79A7,7,0,0,1,425.7,202C426.56,203.25,428.47,203.43,429.28,205.14ZM379,144.6c0-1.65,0-2.88,0-4.11-1.75-1.8-3.57-3.48-6.36-3.89-1-1.15-2.51-2.14-3.14-3.91l-.78.78a3.92,3.92,0,0,1-1.5-2.25c0-.16-.68-.15-1.4-.29.14,1.17-.28,2.18.24,3.21s1.68.7,2.15,1.36a7.33,7.33,0,0,0,2.35,3.9h3.61l-1,1.26c2.54.31,4.07,2.13,6.18,3.21-.53.8,0,1.43-.65,1.88H376l-1-1.49c-.43,1.49,1.57,2.45.83,3.41-1.49,1.2-2.6,2.08-3.7,3a1.43,1.43,0,0,0-.52.6c-.17.62.26,1.36-.34,1.91-3.5-.37-6.27-1.95-6.27-3.63l2.61-1.31,1.33.93a10.23,10.23,0,0,0,3.58-2.95c-2.49-1.31-3.87-4.26-7.37-4.7-1-1-2.26-2.28-3.49-3.57s-1.38-3.22-3.6-3.72a13.79,13.79,0,0,0-5,3.37,13.76,13.76,0,0,1-2.85,0c-1-.21-1.78-1.18-3-.73-.46.59-1.36.94-1.19,2l.8.86c-.55,1-1.94,1-2.5,1.79-.85,1.2-2.14.89-3.16,1.35a2.44,2.44,0,0,1-.56,1.49c-.46.45-1.18.74-1.2,1.67a2.21,2.21,0,0,0,.79,2l-5.38,5.38h-5c-.58.73-1.55,1.09-.9,2.26h6.92c1.13-2.11,4.06-1.33,5.68-3.24,2,.76,3.69-.71,5.68-.78,3.87-.15,7.78.61,11.61-.74,1.54-.54,2.87,1,5.22.83-3.26,1.87-.19,3.38-.92,5.48l-2.94,2.94c2.68-.63,4,.58,5.41,1.4h1.23c2.08,0,4.16-.2,5.15,2.41a3.12,3.12,0,0,0,2.92,1.57c2-.42,2.79,1.43,4,1.86,2.25-.77,1.52-2.52,1.71-3.58l2-2.24h4.22l1.55,1.55c2.08-.25,4,.85,6,1.17,2.57.4,4.9,2.22,7.76.64a4,4,0,0,1,3.56.07c1.46,1,2.84.4,4.1.67a5.38,5.38,0,0,0,2-3.43,10.52,10.52,0,0,1,1.5-3.38v-5.53c-1.41-.17-1.88,1.29-3.21,1.17l2,.92c-.72,2.1-2.39,2.64-4.27,2.82-.49,0-1.1.28-1.56-.31v-2c.73-.5,1.71.22,2.59-.85-2.08.29-2.62-2.76-4.92-1.61l-.49,1.38a2.53,2.53,0,0,1-2.91-1c-.83-1.22-2.37,0-3.58-1.1a11.33,11.33,0,0,0-3.13-4c.64-.58,1.17-1,.67-1.82-.36-.52-1.49.14-1.48-.91-.33-1,1.8-1.34.47-2.55h-2.69c-.2,1.76-1.91,2.42-2.6,3.65.75,1.24,2.4,1.65,2.37,3.3a3.62,3.62,0,0,0-2.85,2.71h-3.58C383.57,149.49,381.34,146.92,379,144.6Zm-.91-51.44c-1.49-.22-2,1.11-3.28,1.1.62,2.91-.54,5.38-1.91,7.8-.91.47-2.14-.46-3,.56a1.18,1.18,0,0,1-.59,1.27H366l-1.42,1.62c-.39-1-1.49-.64-2-1.21-.34-.7.46-1.71-.65-2.14a1.92,1.92,0,0,0-1.9,1.71l1.22,2.39c1-.52,1.24,1,2.12.85,1.1-1,2.41-.9,4.28-.7l.69,1.24c3.56-.74,6.19-2.8,9.65-3.07.32.59-.14,1.87,1.15,1.7s1.32-1.51,1.81-2.38l2-.22c-1.39-3.73,0-6.43,3.85-7.32l2.93,2.91c0-1.49,0-2.3,0-3.11,0-.21-.29-.4-.45-.59-.39,0-.83.1-1.07-.3V91.71l2.43-.85c-3,0-4.54-1.51-6.47-2.09-.63-1.32.14-2.77-.74-4.24-.65-1.08-.13-2.86-.12-4.33,2.53-2.87,6.4-4.39,8.21-7.9a1.18,1.18,0,0,0-1.18-.61c-.51,0-.57-.89-1.19-.64-.89,1.2-1.6.57-2.12,0-1.77.57-2.05,2.31-3,3.54.33.4.9.66.78,1.32-2.13,2.23-4.81,3.7-7.34,5.23l-1.73,4.9c1.28,1.58,3.63,1.66,4.15,3.84C379.61,91.05,378,91.41,378.12,93.16ZM399.65,136c-.38,1.18-1.63,1.39-1.66,2.14l2.62,2.76H405c1.36-1.53,3.49-1.33,5-2.29a5,5,0,0,0,1.07.63c.65.18.91-.44,1.31-.77,2.84,2.44,2.84,2.44,9.79,2.44l1.6,1.18c.19-1.46,1.78-.67,2.23-1.78.37-3.19-3.13-2.86-4.27-4.78s-4-1.71-5-3.43c-2.71.82-5.28,1.14-7.43,2.35-1-.69-.27-1.68-.75-2.35-.54-.41-1.78-.05-1.36-1.94.07-.33,1.17.36,1.65-.69-1.74.38-2.86-1.13-4.38-.82-3,.54-1.46,5-4.78,5.14Zm47.47-8.91c-2,1-4,1.54-5.12,3.18h-2.53c-.68.9.27,2.3-1.08,2.85l1.55,1.55.13,2.88,3.17,2.88c.17.82-.26,1.56.93,2.48.09.13,1.21-1,1.58.24.12,1-.47,1.14-1.29,1.05-.47,1.85-2.28,3.2-2,5.61,1.82-.1,2.41,1.72,3.44,2.42,2.46.66,4.37-.37,6.35-1-1.14-1.13-1.11-2.26,0-3.45-1.32-.64-1.48-2.14-2.6-3.45,1.22-1.79-.93-3.44-.67-5.62-.62-.58-1.3-1.26-2-1.88s-.53-1.41-1.1-2-2.19,0-1.83-1.62c.5-1.15,1.87,0,2.42-.87.23-.66-.27-1.4.27-1.95,1-.56,2.21.35,3.06-.57v-1.89C449,127.52,447.66,128.09,447.11,127.08Zm1.09,54h5c.82-2.55,3.08-3.68,4.9-5.3-.58-.56-1.3-.23-1.92-.33-.84.44-1.16,1.54-2.23,1.67-3.25-1.66-6.5-3.32-9-6.21-.22-.57.27-1.3-.23-1.85h-5c2.49,1.63,1.65,5.64,5.13,5.72.32,1.13-.2,2.22.49,3.14.75-.53,1-1.36,1.85-1.49l1.05,1.05Zm-35.4-52.18c.06.4-.16.84.4,1.19h4.19c1.1-.8,1.58-1.76,1-3ZM390.73,90c3,.63,6,.88,8.88-.6l-.93-1Zm175.14-48.4c2,1.06,3-.5,4.21-.74.09-.73,0-1.08-.37-1.31C568.72,40.63,567.34,40.93,565.87,41.64ZM499.32,58.93a1.91,1.91,0,0,0-2.55,0A1.91,1.91,0,0,0,499.32,58.93Zm2.11,2.49c.16-2,.16-2-.87-1.79ZM681.73,84.06a1,1,0,0,0,0-1.66A1,1,0,0,0,681.73,84.06ZM399.21,143.35c.38-.27.38-.54,0-.81C398.83,142.81,398.83,143.08,399.21,143.35Zm103-93.06c-.38.27-.38.54,0,.81C502.55,50.83,502.55,50.56,502.17,50.29Zm-91.43,17.3c-.38.27-.38.54,0,.81C411.13,68.13,411.13,67.86,410.74,67.59Zm-13.18,75.77c.38-.27.38-.54,0-.81C397.18,142.81,397.18,143.08,397.56,143.35Z" style="fill: none;stroke: #999;stroke-miterlimit: 10"/>
    <path d="M107.22,61.82a1.22,1.22,0,0,0-1.25.89c-1.29,3.5-4.32,3.74-7.61,4.2l-2.14-2.67h-2.6c-.56-.32-.39-.77-.4-1.16,0-1.32,1.41-2.33.61-3.93l2.66-2.66c.15-1.65-2-1.79-1.54-3.65,3.6.32,7.3-1,11,.63a4.24,4.24,0,0,0,2,.1c3-.29,5.26,1.16,7.55,2.81l-.83.92c.81.82,1.41.38,1.92-.37,1.22.66,1.6,1.7,1.15,3.61l2.46-2.06c1.06.41,2,1.11,3.23,1,.42.61.1,1.83,1.43,1.52,1-.49.21-1.49.6-2.15a11,11,0,0,1,3.37.58c1-.54.75-2.23,2.34-2.57,1.42,1.22,3.8.84,5.47,2.68-.1,2.45,2.76,4.21,1.89,6.83,2.48,2.61,6.69,1.85,8.28,5.32-.24,1.49-1.59.49-2.25,1s-.11,1.3-.29,1.94c-.49.68-1.65.22-2,1.16-3,.23-5.8,0-8.24-2.24-.7.12-1,.94-1.76,1.48a5.45,5.45,0,0,0-4.88,1.63c-2.88,0-5.76,0-8.46.13-.54-.88.21-1.76-.5-2.5-1,0-2-.39-3.21.47,1.77-.12,2.26,1.51,3.71,2-.12.69-.69.67-1.25.7s-1.08-.2-1.5.83c3.13-.31,6.18.79,9.1-.83,1.72,1,4,.86,5.4,2.47.71-.66.27-1.39.47-2.24,1.13-.65,2.73.15,4-1,.58-.5,2.25-.32,3.09.15,2.7,1.52,5.56,1.44,8.47,1.4,1,0,1.92,0,2.85,0,.63-.28.37-.94.62-1.37l1.5-.58c-.91-1.12-2.35,0-3.28-.93-.22-2.19,3.17-2.2,2.56-4.34,1.72-.84,2.64,1,3.84.65a38,38,0,0,0,2.69,2.9c-.14.78.26,1.52-.43,2-.39.06-.85-.17-1.16.36,0,.94-.39,2,.3,2.95.87-.61.08-1.6.66-2.32,1.08-.2,2.37-.12,3-1.41-.2-.8-1.78.08-1.57-1.54l1.56-1.8c-1.9.59-3.15-1.33-5.08-1.16-1.2-1.09.12-2.64-.57-4-1-1.86,2-2.36,1.73-4.16l2.29-.26-2.46-4.8,2.5-4.89c3.25.2,6.43,1.21,9.78.7l.13,2.12c-1.76,1.07-2.25,3.56-4.65,4.31a2.17,2.17,0,0,0-2.75-.29l.81,1.05-1.82,1.16c.69,1.3,1.74,1.57,2.64,2.09v2.35l3.32,3.32c.12.89-1.46,0-1.69.9,1.2.8,2.65,0,3.89.53.56.75.08,1.23-.48,1.72l1.12,2.25c.63-1.43,1.09-2.94,3.2-2.48,1.33.47,1.22,2.12,2.11,3,.25.84-.69,1.1-.83,1.75.18,1,.78,1.65,2.14,1.89.37-1.84,2.5-2.79,2.22-4.92l1.29-.27c0-1-.71-.55-1.14-.7a1.85,1.85,0,0,1,.41-2.8c-.5-1-1.48-.15-2.13-.59-.65-.26.1-1.12-.63-1.37-.89.93-2.1.64-3.06.67L169.9,68.1c-.2-1,.36-1.31.7-1.71-.51-.94-1.49-.14-2.28-.68v-4.6c.47-3.37,3.37-3.92,5.17-5.8h5.06c.59.46.22,1.06.33,1.56a2.19,2.19,0,0,0-1.72,1.65c-.74,0-.94.81-1.56,1.19l1.49,1.87c0-1.48,0-2.27.07-3.06h1.72V56.87a8.07,8.07,0,0,0,4-1.23c1.11-.52,2.07-.19,3-.39l2.94,2.84a22.76,22.76,0,0,1-.25,3.69c-.07.64.24.4.22.37-.22-.36.5-1.26-.35-1.09-.66.13-.64.95.12.72,1.28-.75,2.42-1.12,3.23.07l.57-1.6H199c2,.92,2.51,3.68,4.94,4.68.8-.94,2-.63,3.16-.66a5.8,5.8,0,0,1,2.63,3.28h4.1c.25,1.68,2.56,1.63,2.77,2.86a4.86,4.86,0,0,0,1.39,3l-.84,1.54c-1,.18-1.19-.5-1.64-.73a.83.83,0,0,0-.36,1.05c1.43,2.2,3.65,2.38,6,2.18.93.91,2.18,1.56,2.35,3.07,1.25.28,2.2,1.24,3.67,1.16,1.74-.09,2.08,1.33,1.93,2.82A21.7,21.7,0,0,0,224.54,89c-2.19-.38-2.19-.38-7.37-5-.8.81-.21,1.82-.41,2.7.83,1.27,2.12,1.91,3.28,2.76s1.33,2.52,2.68,3.27l-1.35,4.41c-1.68.38-1.85-2.29-3.82-1.29.81,1.08,2.51,1.87,1.36,3.84-4.22-.66-8.06-2.58-11.93-4.46l-.26-2.19c-1.86.32-3.11-.37-3.3-2.26-1.39-.63-2.33.39-3.3.8l-1-.94c-1.44,1.6-3.33.4-4.93.86-.4-.66-1.21-.86-1.29-1.87.35-1.09,2-1.58,2-3,2.43,1.43,4.72.72,7-.5-.26-.29-.52-.56-.74-.85-.07-.09,0-.26-.08-.77,1.28-1.18,3-2.32,4-4.27-.31-2.39-3-2.77-4.44-4.55h-4.31a6.57,6.57,0,0,1,1.43-1.87c-.77-2.06-4.5-.65-4.23-3.74-.89.17-.51.85-.94,1.54-1.29-.25-2.91.78-4.31-.86l-.52,1.5a3.94,3.94,0,0,0-3.91-.24c.65,1.28,1.9,1.29,3.06,1.45a6.11,6.11,0,0,1,.13,2.8c-.59.82-1.63-.12-2.26.6.44,1.49,2.75,1.85,2.43,3.37L183.47,84c-1.5-.17-3.68,2.49-5.85.12-.65.51-.28,1.1-.39,1.61a.7.7,0,0,0-.82.82c-.87-.08-.94.92-1.61,1.07v2.66l-2.51,2-2.29.12-.26,1.24c-.58.8-1.61-.12-2.32.66l.67.86c-.69,1.7-3.35.92-3.83,2.92-2.28.49-2.8,2.73-3.85,4.25a6.85,6.85,0,0,0-1.26,5.19c.65,1.25,1.9,1.27,3,1.41,1.25,1,1.51,2.48,2.19,3.87,3.85.09,7.44,1,10,4.23,2.17-.48,3.42,1.86,5.53,1.67,1.82-.16,3.74-.3,5.49,1.17v5.81c1.26.25.37,2.18,2.12,2.14,1,0,1.25,1.5,1.84,2.51l2.87-1.41c-1-2.63-.76-5.64-3.12-8.1a13.45,13.45,0,0,0,7-4.14v-3.52l-4.39-3.74c1.06-2.23,3.1-3.54,2.85-5.75-.23-1-1.31-.34-1.67-1.21-.23-.65.34-1.07.85-1.49-.93-2.54-.93-2.54.1-4.25,1.78-1.17,3.22.62,4.89.55s3.56,0,4.56,0c2.88.83,4.1,2.68,5.69,4.12,1.11.19,2.51-.6,3.37,1.18a5.64,5.64,0,0,0-.31,3.63c.62,2.08,2.37,2.57,3.78,3.46,1.38-.21,1.67-2,3.24-1.77a4.41,4.41,0,0,1,2.71-4.13,4.5,4.5,0,0,1,2.35,2.5c.28,1.26,1.7,1.56,1.89,3,.1.74.56,2.36,2.14,2.3-.08,1.22.65,2.2,1,3.3l-.93,1.07c3,1.37,4.73,5.09,8.71,4.41.81.88-.09,2.27,1.21,2.94.78.41,1.79.53,2.32,1.45l.9,5.85-1.48,2.69,1.4.5c.21.51-.36.56-.62,1.16l1.47.38c.35.3,1.05-.37,2.37,0l1.88,2c.12.7-.22,1.1-1,1.59l1.71,1.09c.36,1.85,0,2.88-1.42,3.44-.91-.64-2.17-.73-3-1.66-.58,1-1.86.79-2.56,1.56-.62-.57-.18-1.3-.38-2.2-2.27-.52-4.72.09-7.09-.32-.59-.59,0-1.32-.36-2l1.54-.54c.65-2.51,1-5.21,3.61-6.76-1.07-.75-2.12-.43-3.24-.34L234,132.3c-1.1.77-2.63.9-3.64,2H218l-2,2c.23.39.75.63,1,.41,1.52-1.41,3.36-.53,5.1-.86l1.28,1.34c.21,1.39-1.26,1.46-1.59,2.37v3.31c.84.73,2.31.68,2.57,2h3.76c.61-2.85.61-2.85,3.14-3.18.48,1.18,1.44,2.19,1.19,3.74-3.13,1.17-5.63,4.09-9.84,3.58L220,151.6l-1.29-.07c-.71-1.45-.2-2.74.72-4.62-3.32,1.9-6,3.43-9,4a16,16,0,0,0-.68,3.93l.87-.77c.67.69.41,1.46.18,2.26a32.68,32.68,0,0,0-7.85,2,6.79,6.79,0,0,1-1.44,3.88c-1,1.11-1.34,2.54-2.14,3.63-1.13,1.54-.68,2.63.18,3.91-1.43,1.68-2,4-4.46,4.71-.5,1.63-2.24.5-3.13,1.43-.74.77-.69,2.26-2.25,2.38-.38,0-.85.54-1.39.5a6.18,6.18,0,0,0-.1,7.29c1.08,1.74,1,4,2.21,5.73a7,7,0,0,0-1,3.32h-2.82c-1.15-2.81-4-4.9-3.6-8.5l-1.88-2c-1.24-.42-1.42.67-2.31.69s-1.25-1.15-2-1.65h-6.58c-1,.9,1.25,1.1.08,2.31-3.35,1.06-6.91-1.8-10.59-.51-2.24.81-3.87,2.86-6.31,3.32.09,4.87-1.66,9.46-.72,14.2l3.52,5.1c2.65,2,5.54.08,8.23.17,1.82-.85,1-2.44,1.28-3.43,1.54-2.54,4.41-1.72,6.51-3.08l2.5,1.25c.4,1.53-.46,2.38-1.56,3.14,1.73,2.1.14,3.55-.88,5.31,0,.76,0,1.72,0,2.69a.58.58,0,0,0-.73.49c0,.06.18.26.24.24a.58.58,0,0,0,.49-.73c1,.12,2.22-.47,2.83.89,1.54-1.77,3.45-.31,5-1.11.4,1.82,2.18,1.94,2.82,3,.69,1.56-1.11,2.45-.78,3.86a4.23,4.23,0,0,1-.84,3.27c1.15,2.5,2.7,4.53,5.41,5.48.61-.56,1.82-.45,2.37-1.33,3.63-.89,5.86,1.66,8.43,3.34.58.38.18,1,.51,1.45-.75.21-1.49-.31-1.81.56.57.55,1.09.48,1.81-.56,1.11.23.17-1.41,1.42-1.63,1.33,1.05,3.17,1.79,4.4,3.22,1.72.59,3.59-.66,5.15.89.34.34,1.4-.05,2.21-.44a10.38,10.38,0,0,1,6.72-1.06l1.31,1.1-.81.9c-.45,1.19,1.57,1.37.71,2.47,1.77.76,3.63,1.19,4.41,2.75s2.57,2.05,3.44,3.29c2.27.58,4.7-.8,6.74.93,2.74-.39,3.27,3,5.76,3,.57,2.21.89,4.35,2.8,5.56-.06,1,.34,2-1.08,2.54,2.33.8,4.13,1.91,6.42,2.27a14,14,0,0,1,6.17,2.75c0,.39-.14.85.43,1.08l1-.87c2.56,1.64,5.52,2,8.84,1.72a36.67,36.67,0,0,0,3.36,3.3c1.25,1,2.91.94,4.26.91,1.79,3.14,1.9,3.62,1.88,7.6-.6,1-1.13,1.92-1.63,2.82-.18.33-.19.93-.43,1-2.85,1.16-3.54,3.84-4.64,6.27-.15.34-.89.41-1.53.67a44,44,0,0,1-.06,6c-.26,1.87-1.49,3.68-1.47,5.5,0,2.21-2.34,3.11-2.27,4.83.11,2.46-2.56,2.67-3,4.66h-5.15c-1.16,1.88-3.31,1.64-4.77,2.62a31,31,0,0,0-3.86,3.58c.05.83-.12,1.56.52,2.32.82,1,.17,1.92-.51,2.83-1.93,2.58-3.4,5.45-5.07,8.19-.11.18-.44.22-.67.33-.67.12-.85-.56-1.32-.8-.77.81-.2,1.82-.41,2.87-1.4,1.58-3.33,2.9-4.15,5.4-2.4-.25-4.78.56-7.34-1.4.91,2.19.72,4.14,2.83,5.16-1.47,1.8-2.33,3.74-4,5.13-2.51,0-4.85,1.51-7.39.86-.86,1.53-2,2.9-1.22,4.64-3,1.24-3,1.24-5.64.52,1.07,1.32,1.17,1.38,3,1.77l.1,1.79c-3,.66-3.25,3.47-4.45,6-1,.77-3,.75-3.91,2.66.63,2.07,3.85,1.81,4.26,4.51-1.27.87-1.91,2.7-3.89,3-.59.86-.16,1.84-.29,2.75-.61,1.36-2.46,1.05-3.1,2.38-.87,1.64.5,2.4,1.43,3.39V381l3.91,3.76c.77.11,1.74-.33,2.59.25.5,1.08-.47,1.43-1,2.17-1.19-.09-2.49.37-3.78-.36s-2.52-.92-3.63.31c-1.15-1-2.28-1.26-3.39.07L197,386c.61-.57.94-1.25,1-2.9.07-.64-.24-.4-.22-.37.22.36-.5,1.26.34,1.09.66-.13.64-.95-.13-.73a3.66,3.66,0,0,1-2.71.8c0-1,0-1.72,0-2.47a.58.58,0,0,0,.73-.49c0-.06-.18-.26-.24-.24a.58.58,0,0,0-.49.73h-2.92l-1.32-2.69.91-1c-1.06-1.21-2-2.64-1.55-4.22.6-2-2.3-4,0-6a6.82,6.82,0,0,1-1-3.15c-.44-.49-1.21,0-1.57-1.19a2.34,2.34,0,0,1,1.29-2.31l2.78-.15.22-2.13,1.48-.52c-1.26-1-.42-2.45-.95-3.69-.92.23-1.72,1.17-3.09.32l1.43-4.36c.49-1.07-1.61-1.54-.81-3.08l2-1c-.34-2.43.41-4.37-1-6,2.51-3.61,3.67-7.79,4.74-12.11-1.36-1.11-.26-2.89-.59-4.41,1.73-2-.08-4.77,1.65-6.73-.51-3.11.54-6.14,1-9.1.54-3.36.43-6.66.64-9.87a16.76,16.76,0,0,0-6.86-5.37,19.11,19.11,0,0,1-6.29-4.67c-.33-1,.17-2-.54-3.08-2.49-3.87-3.68-8.49-6.91-12-.15-.16-.06-.72-.14-.73-2.61-.37-2.14-2.93-3-4.19l3.14-3c-.2-1.58-.87-1.21-1.36-1.42-.85-1,.49-2.76-1.19-3.62.54-.5,1.3-.88,1.49-1.44.94-2.87,3.39-4.4,5.34-6.38,1.35-1.36,2.24-3.09,1.1-4.8-.9-1.35-.22-2.14.27-3.15l-1.51-1.51c.93-.92,2.1-1.75,1.59-3.35,2.86-.72,3.48-3.42,4.94-5.31,1.37.32,2.14-.92,3.28-1.12,0-.68.26-1.34-.13-2-.63-.39-1.29-.17-2-.12-.43,1-.13,2.36-1.14,3.21-.84-.11-2,.44-2.56-.58-.91-1.53-2.41-.84-3.65-1.14-.5-.59-1.35-1-1.16-2a7.63,7.63,0,0,0-1.7-.83c-1.9-.4-3.29-.92-3.49-3.4-.15-1.84-2.07-3-3.3-4.25-5.2-.86-10.05-2.22-13.16-6.71-2.71-.38-5,1.65-7.68.64-2.78-2.11-6.33-3.05-9.58-4.32a20.09,20.09,0,0,1-7.13-4.92v-5c-2.76-2.37-4.92-5.53-8.3-7.58V192.2c-.39-.34-.92-.77-1.42-1.23-2.57-2.31-4.88-4.81-6-8.18a2.08,2.08,0,0,0-2.46-1.54.58.58,0,0,0-.49-.73c-.06,0-.26.18-.24.24a.58.58,0,0,0,.73.49c0,.55,0,1.1,0,2.07,4.55,4,6.69,10.1,10.68,15.16v1.33c-.55.71-1.31.2-1.9.45-.92-2.23-3.66-2.52-4.66-5.3,0-.11,0-.94,0-1.76l-5.63-2.9c-.14-1-.29-1.6-.06-2.05.45-.69,1.25-.08,1.52-1-3.46-1.26-4.79-4.64-5.53-7.64-1-4-3.72-4.83-6.79-5.8-.24-.08-.47-.2-.87-.37-.83-1.49-1.71-3.13-3.25-4,.18-2.86-1.7-4.29-3.27-5.89v-2.71l-1.61-1.27a3.19,3.19,0,0,1,.85-2.87c-.91-1.49-1.61-3.43-.6-4.77s-1.16-1.62-.28-2.34.77-1.61.82-2.56a12.94,12.94,0,0,0-1.47-7.22,4.32,4.32,0,0,1-.27-1.64c-2.61-2.09-5.4-3.6-7.65-6.41l1.91-1.18c.32-.74-.28-1.15-.76-1.61l.78-.88c-1.75-1.51-2.93-3.56-4.86-4.94-1.63-1.16-1.9-3.07-1.67-4.92a2.07,2.07,0,0,0-2.33-.17c.29,1,1.44,2,.1,3.13-1.63-.23-2.08-2-3.2-2.52a3,3,0,0,1-.29-2.16c.58-.81,1.61.09,2.31-.65-.64-1.45-3-2-2.33-4.21l-2.32-1.15c-.88,2,1.87,3.75.22,5.67h-.91l-1.41-3.11a3.14,3.14,0,0,1-2.19-1.42l.76-.86c-.57-.69-1.31-.23-2.4-.49L66.71,108c-2.56.08-3.87-2.54-6.2-1.89-2-1.48-4.24-.15-6.43-.77-1.94-2.11-4.93-2.1-7.93-3.82.49,1.73,1.52,2.51.67,3.71,0,0-.23.24-.44.21-2.27-.32-3.92,1.18-5.74,2.05a2.34,2.34,0,0,1-2.69,0c.28-1.2,1.27-2.3.92-3.68a.58.58,0,0,0,.73-.49c0-.06-.18-.26-.24-.24a.58.58,0,0,0-.49.73c-1.67.85-2.18,3-4.14,3.47l.89,1.31c-.27,1.64-2.22,1.94-2.51,3.46H31c-.54.73-1.71,1-1.22,2.16-2.17,1.11-4.59,1.21-5.91,3.31-.52.83-1.63-.21-2.21.57l-.34,1.3c-3.75-.23-.12-.37-3.44.65-.89-.51-.43-1.28-.71-2.16,2.95-1.11-.61.51,2.11-1.1,2-2,4.65-3.3,7.1-4.78V109.9c-1.12-1.35-1.52.76-2.41.51-1.05-.12-1.29-1.34-2.33-1.69-1.2-.54-2,1.16-3.26.87-2.68-.3-1.29-2.81-2-4.06-1.28-.29-1.94,1.18-3.11.77-1-.21-1.33-1.3-2-1.59-.74-.76-.31-1.48-.46-2.09-.53-1-1.69-1.17-2.49-1.79.07-3.43,2.84-4.9,4.45-6.77a1.33,1.33,0,0,1,1.55.51c.87.12.93-1.07,1.38-1.07,1.19-.81,2.43.16,3.31-.74.26-1.2-1.12-1.74-1.09-2.87-.74.78-2,.6-2.42,1.29C13,90,10.4,91,7.87,90.56c-.72-.75,0-2-1.06-2.85-.85-.64-2,.19-2.5-.74a1.37,1.37,0,0,1,.87-1.72c2.83-1.08,5.71-2,8.59-3l.7,1.82H18c.32-1-1.05-1.26-.6-2.15-.56-.59-1.28-.24-1.93-.31a16.44,16.44,0,0,0-1.65,0c-1.26-3.08-5.38-2.35-6.65-5l2.39-2.36h3.39c.71-1.87,2.25-3,2.59-4.63,2-.38,3.39-1.54,5-1.22L21,66.83h5l1.59-1.59c1.67-.71,2.46.57,3.4,1.5,2-2.4,3.89,1.34,5.67-.1l1.78,1.78A43.81,43.81,0,0,1,53,70c1.25-1.08,2.88-.76,4.43-.73.94,1,2.49,1.07,3.2,2.49a9.36,9.36,0,0,1,7.07,1.61,5.23,5.23,0,0,0,3.77.78c.52-.74.6-1.76,1.74-2.45,4,.84,7.55-1.37,11.21-2.67l1.33,1.37c.12.49-1,.5-.45,1.22,1.61.47,1.85-1.28,2.85-1.76,0-.78-1.47-1.41,0-2.39,2.2,1.19,3.54,3.5,5.62,5.06L94.28,71a3,3,0,0,1,2-.07L97,72.8l1-1.6c3.84-1.18,6.4.91,9.23,1.71,2.11.6,4.09,1.76,6.92,1-1.58-.79-2.91-1.47-3.68-3.13,2.89-2.85,6.83-.68,10.12-1.86-.18-.17-.28-.33-.38-.34H109.49l-1.24-1.14c.1-1.39,1.39-1.26,2.2-1.77-.15-.17-.27-.45-.44-.49a4.64,4.64,0,0,1-2.78-1.25q0-1,0-2.06A.7.7,0,0,0,108,61a.7.7,0,0,0,.82-.82c.62-.12,1.58.41,1.42-.76.75-.21,1.49.31,1.81-.56-.57-.55-1.09-.48-1.81.56-.4.06-1.35-.48-1.42.76A.7.7,0,0,0,108,61,.7.7,0,0,0,107.22,61.82ZM216,94.77a.57.57,0,0,0,.49.73c.06,0,.26-.18.24-.24a.59.59,0,0,0-.74-.49.57.57,0,0,0-.49-.73c-.06,0-.26.18-.24.24A.59.59,0,0,0,216,94.77Zm-2.48,42.41a1,1,0,0,0,1.66,0A1,1,0,0,0,213.47,137.18ZM141.81,72.11a1,1,0,0,0,1.66,0A1,1,0,0,0,141.81,72.11Zm54.78,166a1,1,0,0,0,0-1.66A1,1,0,0,0,196.59,238.09ZM193.3,350.86c-.53.75-.77,1.27.12,1.61C193.86,352,193.84,351.53,193.3,350.86ZM113,58.11c.27.38.54.38.81,0C113.54,57.73,113.26,57.73,113,58.11ZM83.75,71.71c-.38.27-.38.54,0,.81C84.13,72.25,84.13,72,83.75,71.71Zm48.18,9.47c-.27-.38-.54-.38-.81,0C131.38,81.56,131.66,81.56,131.93,81.17Zm47.36-15.24c.38-.27.38-.54,0-.81C178.91,65.39,178.91,65.66,179.29,65.93Zm-48.6-3.29c-.38.27-.38.54,0,.81C131.08,63.19,131.08,62.91,130.7,62.64ZM239,259.08c.27.38.54.38.81,0C239.56,258.7,239.28,258.7,239,259.08Zm-62.6-196c.27.38.54.38.81,0C177,62.67,176.69,62.67,176.42,63.05Zm-79.9,72.48c.27.38.54.38.81,0C97.07,135.15,96.79,135.15,96.52,135.53ZM130.28,61.4c-.27-.38-.54-.38-.81,0C129.74,61.79,130,61.79,130.28,61.4Zm40.37,25.53c.27.38.54.38.81,0C171.2,86.55,170.92,86.55,170.65,86.94ZM99.81,138c-.27-.38-.54-.38-.81,0C99.26,138.39,99.54,138.39,99.81,138Z" style="fill: none;stroke: #999;stroke-miterlimit: 10"/>
    <path d="M627.38,158.15a8.34,8.34,0,0,1-5.14,2.63c-1.65.27-3.75.42-4.69,2.42l-.71-.72c-2.15.4-.74,3.24-2.64,3.85h-2.73c-.07-1.35-.78-2.67.64-3.56-.36-.66-.83-.38-1.26-.51-.64-.46-.24-1.21-.36-1.88,2.42-1.52,4.94-2.95,6.77-5.39h5.83l2.24-2.14c-.14-1.56.29-2.67,1.85-2.94.94.31.31,1.36,1,1.69l3.78-3.78c0-1.45-.43-3.35.12-4.9.62-1.76-1.12-3.16-.08-4.76.77-.94,1.42-2.19,2.92-2.36,1.43-1.61.94-3.72,1.23-5.85,2.44.88,3.45,3,5.24,4.28,1.18.63,2-.71,3.13-.81,1.13.78.1,1.87.89,2.82L643,138c-.4.81-1.4,0-1.91.73l-.24,1.18c-1.88.58-3.1-.43-4.41-1.4l-1.09,1c2.62,4,3.82,7.49-.11,10.18a1.29,1.29,0,0,0,.73,1.34c-.68.79-.6,2-1.54,2.59l.8.88c.62,1.17-1.69,1.28-.71,2.42A13.13,13.13,0,0,1,627.38,158.15Z" style="fill: none;stroke: #999;stroke-miterlimit: 10"/>
    <path d="M431.54,276.43a6.66,6.66,0,0,0-.54-4.49c-.84-1.48,1-2.91.69-4.88,1.61.27,2.77-1.1,4.51-1l2.79-3.19c-.23-2,2.69-2.32,2.75-4.28,1.75.07,2.12,1.32,3.22,2a11.21,11.21,0,0,0,.93,5.53c-.51.88-1,.68-1.64.77-.59,5.64-3.13,10.86-4.31,16.49-1.08,5.15-4.24,5.84-8.67,4-1.76-2.16-.6-5.11-2.29-7.43C430.08,278.87,431.24,277.95,431.54,276.43Z" style="fill: none;stroke: #999;stroke-miterlimit: 10"/>
    <path d="M183.51,201.05c-1.35.74-2.62,2-4.68,1.41.25-2.33,2.32-2.72,3.92-3.93a26.4,26.4,0,0,1,6.38.67c1.37.41,1.77,2.07,3.4,1.84s2.14,2.28,4.29,1.74c1.36-.34,2.27,2.05,4.14,1.84.39,0,.89.94,1.25,1.35h6.62c1.84,1.35,4.31,1.6,5.34,3.81l-.88.88c-1.27-.83-2.7-.54-4.26-.6l-2,1.81c-1.69-1.42-3.62-.84-5.49-1-.46-.56-1.39-.86-1.25-1.93.79-1.26,2.35.13,3.36-1-3.22-1.65-6.46-1.48-9.82-.54l-.22-1.94c-.7-.43-1.81-.45-1.7-1.63Z" style="fill: none;stroke: #999;stroke-miterlimit: 10"/>
    <path d="M588.17,224.92h-5.53c-.14,3.33-2,5.42-5.06,6.57-.7.15-.82-.62-1.64-.85l-3.43,1.7c-3.1-1-3.1-1-4-3a1.92,1.92,0,0,1,2.82.51c.95-.82-.36-2.68,1.43-3.21l2.76-.15a4.15,4.15,0,0,1,2.07-2.82c.88-.56,2.15-.85,2.46-1.82.42-1.32,2.35-.47,2.5-2.22.08-1,1.35-1.6,2.64-1.3.86.56,1.75,1.15,1.47,2.29.91.34,1.64-.15,2.2.37C589.76,222.5,588.11,223.39,588.17,224.92Z" style="fill: none;stroke: #999;stroke-miterlimit: 10"/>
    <path d="M145.42,59.38l1.15-1.06c0-1.12-1.68-1.28-1.46-2.52.16-.19.31-.55.48-.56,1.64,0,3.28-.1,4.91,0,.79,0,1.15-.47,1.67-.81.33,1,1.5.48,2,1.17.25,1.33-1.17,1.63-1.57,2.55.7,1.25,2.42,1.11,3.3,2.59-1,1-.23,3.11-1.74,3.84a9,9,0,0,1-5.46,1.29c-.3-2.14-2.05-2.76-4-3.28-2.17-.58-2.7-1.52-2.63-3.93C143.36,57.93,144.24,59.18,145.42,59.38Z" style="fill: none;stroke: #999;stroke-miterlimit: 10"/>
    <path d="M594.83,205.22a3.11,3.11,0,0,1,0,1.13,5.83,5.83,0,0,1-.61,1.15c-1.74.22-2-.61-2.63-1V203.1L590,201.52v-3.63l1.49-.31V193.7h4.84v4.63l-1.07.88c-.66,1.17-.32,2.13-.4,3a1.1,1.1,0,0,0,1.06.41c1.73,0,2.68,1,3.42,2.43.56,1,1.56.9,2.53.86.4,1.34,1.89,2.5.87,4.13-2.23-.19-2.28-2.56-3.7-3.25s-2.21-2.64-4.2-1.62c.07-.48-.11-.73-.49-.82-.06,0-.26.18-.24.24A.7.7,0,0,0,594.83,205.22Z" style="fill: none;stroke: #999;stroke-miterlimit: 10"/>
    <path d="M177.24,85.7h2c.61.3.31,1,.6,1.4,2.24.24,3.84,1.92,5.88,2.61.56.19.62.82.57,1.38.79.77,2.18-.08,2.85,1.13.27.49.56.86.23,1.56h-4.49l-1.41-1.48c-1.56,1.76-3.82,2.25-5.48,3.4-.93-.4-.68-1.05-1.05-1.78h-3.38c1.41-2.61,3-4.72,2.82-7.41A.7.7,0,0,0,177.24,85.7Z" style="fill: none;stroke: #999;stroke-miterlimit: 10"/>
    <path d="M605.45,217.1c-.81,1-1,2.36-2.4,2.47v1.66c-.82.78-1.83.21-2.71.38l-2.13-2c-.25-1,.43-1.38.87-1.9-2-.79-2.36,1.5-3.81,1.36l-1.11-1,.85-2c1.85-1.23,4.28-.75,6.12-2.1.75-.53-.2-1.57.7-2.24.28,0,.76,0,1,.2.47.43,1.14.76,1.07,1.6C603.78,215,604.66,216,605.45,217.1Z" style="fill: none;stroke: #999;stroke-miterlimit: 10"/>
    <path d="M590.72,181.65l2.87-2.87c.83-.25,1.2.41,1.76.92-.58,2.53-.94,5.19-2.92,7.47C590.47,185.74,590.69,183.66,590.72,181.65Z" style="fill: none;stroke: #999;stroke-miterlimit: 10"/>
    <path d="M200.3,77.88v2.46c-1.39.66-2.68,1.72-4.7,1.07-.71-.41-1.29-1.23-1-2.82l2.19-1.91h2.3Z" style="fill: none;stroke: #999;stroke-miterlimit: 10"/>
    <path d="M590.74,211.35a13.74,13.74,0,0,0-3.42,3.33,2.19,2.19,0,0,1-3.21.82,4.11,4.11,0,0,1,2.78-3.43c1.67-.54,1.29-3,3.22-2.82C591.32,209.64,590.43,210.65,590.74,211.35Z" style="fill: none;stroke: #999;stroke-miterlimit: 10"/>
    <path d="M595.2,207.49c1.54.32,2.08,1.48,2.92,2.23v4.07c-.66.73-1.44.37-2.25.26C595.68,211.95,594,210,595.2,207.49Z" style="fill: none;stroke: #999;stroke-miterlimit: 10"/>
    <path d="M197.43,209.17c-.78,2.07-2.13,1.82-2.78,2.6-1.2-.2-1.6-1.38-2.76-2.15l1.58-1.23C194.66,208.71,195.64,209.74,197.43,209.17Z" style="fill: none;stroke: #999;stroke-miterlimit: 10"/>
    <path d="M215.25,210.9c-.31-1.42.44-1.71.92-2.3a4.69,4.69,0,0,1,2.92,0c.26,1.32.55,2.54-1.48,2.29A19.69,19.69,0,0,0,215.25,210.9Z" style="fill: none;stroke: #999;stroke-miterlimit: 10"/>
    <path d="M80.87,122.81c0,.92,0,1.46,0,2a1.45,1.45,0,0,1-1.8.39,2.07,2.07,0,0,1-1.27-3.09C79.27,121.32,79.57,123.62,80.87,122.81Z" style="fill: none;stroke: #999;stroke-miterlimit: 10"/>
    <path d="M360.1,137.07c-.12,1.26.45,2.59-.89,3.49,1.35,2,.73,4.35.92,6.73-1.52.23-3,.67-4.08-1.14V142.1c.33-.56.78-.33,1.53-.45a4.74,4.74,0,0,1-.67-3.82C358,138.19,358.57,136,360.1,137.07Z" style="fill: none;stroke: #999;stroke-miterlimit: 10"/>
    <path d="M394.72,156.09l-.2,1.14h-5.28c-.42-.37-1.1-.81-1.24-1.57.23-.34.36-.73.51-.74,1.08-.05,2.67-.47,3.13.07C392.55,156,393.71,155.35,394.72,156.09Z" style="fill: none;stroke: #999;stroke-miterlimit: 10"/>
  </g>
  <g>
    <path d="M397.16,100.3c0,.65-.38,1-.94.83A1.56,1.56,0,0,1,395,99.77c-.11-.58-.15-1.18-.24-1.77-.45-2.77-.89-5.54-1.36-8.31-1.23-7.28-5.67-24.23-7.93-31.22-.38-1.18-.94-2.3-1.42-3.45-.15-.35-.34-.68-.48-1-.38-.94-.27-1.52.33-1.86s1.16-.1,1.61.87a43.45,43.45,0,0,1,2.2,5.22c1.55,5,5.14,16.9,6.38,21.93a124.43,124.43,0,0,1,2.83,18.78A12.77,12.77,0,0,0,397.16,100.3Z"/>
    <path d="M398.07,108.84a2.28,2.28,0,0,1-1.78-1c-1.2-1.86-2.38-3.73-3.56-5.6a1.71,1.71,0,0,1-.18-.45,1.07,1.07,0,0,1,.48-1.26.92.92,0,0,1,1.31.18c.63.8,1.19,1.66,1.79,2.49.31.43.65,1.2,1,1.2.66,0,.65-.86.87-1.37.44-1,.77-2.14,1.23-3.17a18.2,18.2,0,0,1,1.41-2.54,1.33,1.33,0,0,1,.94-.46c.51,0,.75.42.82.86a2.27,2.27,0,0,1-.06,1.09c-1.07,2.94-2.18,5.86-3.28,8.79a1.94,1.94,0,0,1-.23.6A5.87,5.87,0,0,1,398.07,108.84Z"/>
    <path d="M396.33,111.24c1.23-.15,2.47-.28,3.7-.47,1.07-.17,1.07-.21,1-1.36-.08-.81.3-1.23,1.1-1.15a2.69,2.69,0,0,1,2.06,1.41,1.3,1.3,0,0,1-.06,1.06,3.41,3.41,0,0,1-1.83,1.77,16,16,0,0,1-9.22.92,3,3,0,0,1-1.27-.66c-1.51-1.34-1.27-3,.54-3.9a3.87,3.87,0,0,1,1.68-.45c1,0,1.38.87.8,1.71a3.28,3.28,0,0,1-.48.42,4.24,4.24,0,0,0-.29.33c.17.1.34.28.52.29.59,0,1.19,0,1.78,0Z"/>
    <g>
      <path d="M414.64,46.94a16.8,16.8,0,0,1-2.77-.92,3.17,3.17,0,0,0-2.32-.36,5.24,5.24,0,0,1-5.4-1.78c-.95-1-1-1.33.1-2.17.13-.1.37-.15.4-.26a2.61,2.61,0,0,0,.12-1.05c0-.2-.42-.53-.5-.49a1.29,1.29,0,0,0-.68.61,11.12,11.12,0,0,0-.51,2c-.16,1-.24,2-.37,3.05-.07.53-.34.91-1,.9a1.11,1.11,0,0,1-1.2-.89,5.3,5.3,0,0,1,0-1.93,11.19,11.19,0,0,0,.23-4.33c-.18-.93.11-1.19,1-1.16a1.78,1.78,0,0,0,1.17-.39c1.53-1.07,2.9-.69,3.66,1a5.16,5.16,0,0,1,.43,3.32c-.24,1,.1,1.38,1.15,1.39s1.57-.31,1.67-1.61a3.79,3.79,0,0,1,1.09-2.47,2.42,2.42,0,0,1,2-.83,1.7,1.7,0,0,1,1.71,1.63,3.67,3.67,0,0,1-.76,3.2c-.4.43-.27.85.28.9a10,10,0,0,0,2.07-.12c.59-.07,1.16-.3,1.74-.31a.68.68,0,0,1,.62,1.12,3,3,0,0,1-1.16,1.07A25.83,25.83,0,0,1,414.64,46.94Z"/>
      <path d="M360,43.94c.08-1.27.1-2.4.24-3.53.19-1.52.72-1.74,1.95-.82a.68.68,0,0,0,.86,0c1.56-.75,1.57-.76,2.8.61.3.33.52.31.77,0l.09-.13c1.11-1.45,2.3-1.5,3.31,0a10.88,10.88,0,0,1,1,2.52,4.91,4.91,0,0,1,.08,1c.12.92.23,1,1.13.8a5.08,5.08,0,0,1,1.27-.18.72.72,0,0,1,.61,1.16,2.5,2.5,0,0,1-.77.8,6.42,6.42,0,0,1-1.32.61c-1.91.67-2.72.14-2.94-1.88-.09-.86-.23-1.71-.37-2.56,0-.13-.21-.35-.28-.34s-.44.14-.49.29c-.35.91-.66,1.83-1,2.75-.1.31-.12.64-.25.93a1.15,1.15,0,0,1-1.34.63.88.88,0,0,1-.66-1.14,3.92,3.92,0,0,0-.41-2.81,1.15,1.15,0,0,0-.53-.52c-.07,0-.37.22-.45.4a17.41,17.41,0,0,0-.78,2.12c-.18.67-.23,1.39-.37,2.07s-.55,1.13-1.16,1.09-.95-.47-1-1.24c0-.32,0-.65,0-1C360,45,360,44.41,360,43.94Z"/>
      <path d="M381.42,43.38c.27-2.91.52-5.65.79-8.39,0-.26.07-.61.24-.75a1.86,1.86,0,0,1,1.1-.47c.26,0,.62.44.71.74a4.51,4.51,0,0,1,.06,1.43c0,.92-.14,1.83-.19,2.75,0,.46.07.89.56,1.05s.78-.22,1.06-.55a5.28,5.28,0,0,0,.92-2.89,11.82,11.82,0,0,1,.43-2.21c.35-1,1-1.43,1.8-1.24a1.79,1.79,0,0,1,1.24,1.88,5.73,5.73,0,0,1-.52,2,11.39,11.39,0,0,0-1.07,6.45,24.5,24.5,0,0,1,.12,2.57c0,.28-.18.71-.38.78a1.17,1.17,0,0,1-1-.12,3.14,3.14,0,0,1-.75-1.37A15,15,0,0,1,386.3,43c0-.45-.1-.86-.7-.9-.79-.06-1.27.15-1.41.75s-.21,1.28-.31,1.92c0,.32-.06.65-.12,1a1.16,1.16,0,0,1-1.06,1.06,1,1,0,0,1-1.11-1A23.22,23.22,0,0,1,381.42,43.38Z"/>
      <path d="M390,44.17a7.5,7.5,0,0,1,3.41-5.44,1.91,1.91,0,0,1,3,.92,3,3,0,0,1,0,2.95,5,5,0,0,1-3,2.78c-.12,0-.19.22-.29.33.13.07.28.23.39.2a7.4,7.4,0,0,0,1.82-.52,17,17,0,0,0,1.83-1.33,4.18,4.18,0,0,1,1.1-.67,1.3,1.3,0,0,1,1,.12c.15.1.17.65,0,.87-1.26,2-2.86,3.69-5.39,4a3.19,3.19,0,0,1-3.62-2.73C390.1,45.16,390,44.68,390,44.17Zm3-1.21c.17-.05.3-.06.36-.12a6.42,6.42,0,0,0,.83-1,2.72,2.72,0,0,0,.2-.84,3.14,3.14,0,0,0-.75.47,6,6,0,0,0-.7,1.07C392.82,42.66,392.9,42.82,392.92,43Z"/>
      <path d="M352.14,39.61c0-2.49,0-4.59,0-6.7a3.31,3.31,0,0,1,.23-1.41,1.05,1.05,0,0,1,1.95-.08,2.21,2.21,0,0,1,.24,1.23q-.31,7-.67,14.07c0,1-.32,1.34-.85,1.31a1.21,1.21,0,0,1-1.11-1.35c0-1.83.06-3.67.12-5.51C352.07,40.52,352.13,39.88,352.14,39.61Z"/>
      <path d="M356.14,40.68c0-.84.27-1.71-.31-2.5a.94.94,0,0,1,.2-1.42,1.31,1.31,0,0,1,1.77.08,2.26,2.26,0,0,1,.65,1.41,37.57,37.57,0,0,1-.81,4.42,1,1,0,0,1-.83.54,1.08,1.08,0,0,1-.65-.76A10.11,10.11,0,0,1,356.14,40.68Z"/>
    </g>
  </g>
  <g>
    <path d="M385,120.92a2.86,2.86,0,0,1,.31-.19,3.2,3.2,0,0,1,.63-.24c.33-.07.52.19.42.51a2,2,0,0,1-.83,1.08,1.12,1.12,0,0,1-1.72-.64,3.69,3.69,0,0,1-.1-1.54c0-.2,0-.4.07-.66l-.21.18a8.34,8.34,0,0,1-1.64,1.37,3.1,3.1,0,0,1-2.15.55,2.23,2.23,0,0,1-2-2.09,5.23,5.23,0,0,1,0-1.23,15.23,15.23,0,0,1,1.37-4.72c.2-.42.38-.85.57-1.28a1.51,1.51,0,0,1,.1-.17l.55-.06,0,.27a.36.36,0,0,1,.25.49c-.09.33-.2.66-.33,1-.19.48-.4,1-.59,1.44a13.52,13.52,0,0,0-.73,3c0,.28-.05.56-.08.84a1.46,1.46,0,0,0,.15.72.92.92,0,0,0,.84.56,2.32,2.32,0,0,0,1.45-.5,10.72,10.72,0,0,0,2.37-2.34c.17-.21.34-.42.49-.64a1,1,0,0,0,.14-.32c.2-.7.38-1.4.58-2.1.15-.53.32-1.06.5-1.58a3.25,3.25,0,0,1,.33-.63c.07-.11.16-.21.32-.12a.22.22,0,0,0,.18,0,.42.42,0,0,1,.42-.08.67.67,0,0,1,.44.35,1.71,1.71,0,0,1,.12,1.11,7.41,7.41,0,0,1-.7,1.92c-.3.53-.61,1-.91,1.57a1.67,1.67,0,0,0-.19.44,22.92,22.92,0,0,0-.51,3.14,3.4,3.4,0,0,0,0,.39A1.74,1.74,0,0,0,385,120.92Z"/>
    <path d="M414.55,120.09a1,1,0,0,0,.65,1.21,2,2,0,0,0,.92.14c.45,0,.91-.09,1.36-.11a9.79,9.79,0,0,1,1.07,0c.34,0,.44.27.25.57a1.25,1.25,0,0,1-.68.48,6.39,6.39,0,0,1-3,.28,2.26,2.26,0,0,1-1.63-1.08,1.57,1.57,0,0,0-.16-.18l-.19.12a3,3,0,0,1-1.09.56.9.9,0,0,1-1.13-.65,2.74,2.74,0,0,1,0-1.13c0-.32.07-.65.09-1s-.31-.6-.65-.56a1.21,1.21,0,0,0-1.15,1.23c0,.33,0,.67,0,1a.89.89,0,0,1-.47.83.36.36,0,0,1-.48,0,1,1,0,0,1-.34-.65,12.73,12.73,0,0,1,0-3.47.58.58,0,0,1,.44-.47.4.4,0,0,1,.56.31c0,.13.07.27.12.44l.31-.12a2.45,2.45,0,0,1,1.68-.2,2.27,2.27,0,0,1,.38.17l0,0a1.84,1.84,0,0,1,.81,2c0,.26-.05.53-.08.84l1-.2-.07-.58a2.61,2.61,0,0,1,.7-2.22,1.66,1.66,0,0,1,.55-.39,2.72,2.72,0,0,1,1.34-.2,1.39,1.39,0,0,1,1,2,2.3,2.3,0,0,1-1.4,1,1.51,1.51,0,0,1-.63-.07A.62.62,0,0,1,414.55,120.09Zm-.07-.78a1.88,1.88,0,0,0,.33-.09c.26-.12.52-.26.77-.4.1-.05.18-.16.11-.27a.41.41,0,0,0-.24-.17A.81.81,0,0,0,414.48,119.31Z"/>
    <path d="M402.1,120.54a9.24,9.24,0,0,1-.76.59,1.76,1.76,0,0,1-2.18,0,2.37,2.37,0,0,1-.71-2.83.43.43,0,0,1,.33-.28c.49-.07,1-.16,1.46-.21a2.22,2.22,0,0,1,1.54.48.48.48,0,0,0,.32.11.36.36,0,0,1,.44.37,1.54,1.54,0,0,0,.31.74.9.9,0,0,0,.62.38l.38.07a.41.41,0,0,1,.24.69,1.11,1.11,0,0,1-1.71.17C402.29,120.72,402.2,120.64,402.1,120.54Zm-2.51-.89c.15.48.28.57.73.51a2.06,2.06,0,0,0,.29-.05.84.84,0,0,0,.51-.42.42.42,0,0,0-.1-.55,1.16,1.16,0,0,0-.94-.2A.84.84,0,0,1,399.59,119.65Z"/>
    <path d="M395.12,120.28c0,.22-.06.36-.08.51a1.12,1.12,0,0,1-.21.61.46.46,0,0,1-.79,0,1,1,0,0,1-.22-.76c.1-.57.18-1.13.28-1.7.05-.33.11-.66.17-1a.58.58,0,0,1,.71-.5.62.62,0,0,0,.52-.09,1.19,1.19,0,0,1,1.84.92,2,2,0,0,1-.37,1.32l-.07.11v0s0,.07,0,.08a4.3,4.3,0,0,0,1.08.65,1.26,1.26,0,0,1,.26.12.53.53,0,0,1,.1.85c-.31.33-.39.32-.82.15a8.31,8.31,0,0,1-1.56-.92A4.9,4.9,0,0,0,395.12,120.28Zm1-1.9a1.36,1.36,0,0,0-.67.5c.27.16.29.18.42.06S396.19,118.71,396.07,118.38Z"/>
    <path d="M389.88,118.19c.18-.13.32-.22.44-.32a2.42,2.42,0,0,1,.8-.48.3.3,0,0,1,.3,0l.05,0c.57.28.39.52.15.91a2.6,2.6,0,0,1-.57.52l-.54.44a.65.65,0,0,0,.1.15,5.92,5.92,0,0,1,.95,1,3.76,3.76,0,0,0,.69.64c.53.36.33.87-.12,1.14-.16.09-.31,0-.46-.08a4.24,4.24,0,0,1-1.32-1.28,1.46,1.46,0,0,0-.94-.53c-.06.21-.14.4-.18.59a1.37,1.37,0,0,1-.34.62.34.34,0,0,1-.46.09.8.8,0,0,1-.43-.86c.13-.54.29-1.06.42-1.6s.22-1,.31-1.49a.85.85,0,0,1,.38-.54c.13-.1.44,0,.54.15a.81.81,0,0,1,.19.63A1.3,1.3,0,0,0,389.88,118.19Z"/>
    <path d="M405.14,119.59a4.87,4.87,0,0,1,0-.71,5.44,5.44,0,0,1,.21-.81.29.29,0,0,1,.3-.21,2.13,2.13,0,0,1,.36,0,.31.31,0,0,1,.21.12,1.36,1.36,0,0,1,.18.64c0,.61,0,1.21,0,1.82a.86.86,0,0,1-.58.83.42.42,0,0,1-.3-.06.77.77,0,0,1-.36-.59c0-.35,0-.69-.06-1Z"/>
    <path d="M405.2,116.06a.5.5,0,0,1,.41-.52.87.87,0,0,1,.86.46.47.47,0,0,1-.08.46.5.5,0,0,1-.81.18C405.37,116.48,405.19,116.32,405.2,116.06Z"/>
  </g>
  <g>
    <path d="M221.77,47.18a3.87,3.87,0,0,1-3-2.11c-.67-1.1-.86-1.06-1.55.09-.16.26-.29.55-.46.8-1.05,1.58-2.19,1.54-2.94-.23a18.19,18.19,0,0,1-1.21-4.23c-.27-1.75-.25-3.55-.41-5.32-.05-.58-.14-1.48-.47-1.63-.64-.28-1,.53-1.34,1A15.45,15.45,0,0,0,208,40.89c-.41,1.28-.7,2.61-1.05,3.91s-.9,1.92-1.53,1.73-.77-.83-.69-2.09c.15-2.45.28-4.9.36-7.35,0-.71.21-1.69-.61-2s-1.4.61-1.85,1.23a24.42,24.42,0,0,0-2.84,4.27,19.69,19.69,0,0,0-.92,4.48c-.07.42,0,.87-.08,1.28a2.77,2.77,0,0,1-.55,1.12.74.74,0,0,1-1.3-.31,3.62,3.62,0,0,1,0-1.27c.5-4.08,1-8.16,1.55-12.24a15.84,15.84,0,0,1,.57-2.3.52.52,0,0,1,.43-.24.51.51,0,0,1,.37.32c.11.79.19,1.58.23,2.37,0,.36-.13.73-.12,1.09a10.13,10.13,0,0,0,.15,1.21,5.87,5.87,0,0,0,1-.68c.72-.75,1.38-1.57,2.1-2.32a2,2,0,0,1,2.29-.75,2.16,2.16,0,0,1,1.36,2c.09.61-.22,1.55.62,1.7.31.05.77-.82,1.17-1.26a34.06,34.06,0,0,1,2.78-2.92c1.21-1,2.55-.45,2.86,1.12a13,13,0,0,1,.1,1.65c.14,2.08.26,4.16.42,6.24a6.37,6.37,0,0,0,.29,1.44c.08.27.28.63.5.68s.56-.21.71-.43c.62-.92,1.18-1.87,1.76-2.81.13-.21.17-.51.35-.64a2.12,2.12,0,0,1,1.07-.49c.49,0,.67.44.71.91a22.19,22.19,0,0,0,.3,2.73c.14.68.2,1.7,1.07,1.69.44,0,1-.81,1.3-1.36.84-1.56,1.57-3.18,2.33-4.79.13-.28.2-.58.35-.85.28-.52.69-.9,1.33-.71s.71.79.57,1.35c-.6,2.54.16,5,.45,7.48.24,2,.41,4,.49,6A4.08,4.08,0,0,1,226,54.77a14.8,14.8,0,0,1-3.33,1.55,2.94,2.94,0,0,1-3.83-2.95,8,8,0,0,1,1.75-4.76l1.13-1.45c1.25,0,2.12-.84,3.16-1.3.53-.24.55-.79.43-1.27a4,4,0,0,0-.49-.89,5.61,5.61,0,0,0-.65.57C223.38,45.22,222.58,46.2,221.77,47.18ZM220.69,52a1.48,1.48,0,0,0,1.5,1.84,3.78,3.78,0,0,0,3.72-5.09,1,1,0,0,0-1.12-.72A5.57,5.57,0,0,0,220.69,52Z"/>
    <path d="M262.34,41.52c.46-1.7,1.09-3.63,2.93-4.81a3.71,3.71,0,0,1,1.87-.56,1.36,1.36,0,0,1,1.36,1.75,5.56,5.56,0,0,1-2.22,3.88c-.36.25-.87.84-.78,1.09.21.63.94.5,1.43.34A19.69,19.69,0,0,0,270,42a2.59,2.59,0,0,0,1.35-2.08,8.78,8.78,0,0,1,.31-1.44c.44-1.42.9-1.75,2.41-1.54a2.75,2.75,0,0,0,1.72-.44A25,25,0,0,1,278.92,35a1.72,1.72,0,0,1,2.51,1.15,9.63,9.63,0,0,1,.49,2.67c.08,1,0,2.08,0,3.12.06.85.34,1,1.22.87a2.87,2.87,0,0,0,.35-.1c.57-.16,1.11-.2,1.41.44s-.07,1-.42,1.3c-.84.84-1.8,1.62-3.06,1.31s-1.87-1.54-2-2.81,0-2.45,0-3.67c0-1.76-.58-2.13-2.09-1.29A5,5,0,0,0,275,40.7c-.34.92-.65,1.85-1,2.77a7.55,7.55,0,0,1-.57,1.35c-.56.91-1.18,1-1.88.22s-1.34-.67-2.1-.28a8.2,8.2,0,0,1-3.71.92C263.31,45.68,262,44.23,262.34,41.52Zm2.85-1.43a2.41,2.41,0,0,0,.61-.34,4.33,4.33,0,0,0,.47-.71c-.1-.05-.25-.17-.28-.15a10.21,10.21,0,0,0-.9.8S265.14,39.9,265.19,40.09Z"/>
    <path d="M239.45,41.17A3.21,3.21,0,0,0,241,44.64a3.32,3.32,0,0,0,4-.05A34.25,34.25,0,0,0,247.84,42a6,6,0,0,1,.76-.77.73.73,0,0,1,1.09.57,1.44,1.44,0,0,1-.17.88,12.07,12.07,0,0,1-2,2.42,16.73,16.73,0,0,1-3.44,2.1c-1.84.86-4.71-.23-5.74-2.13a5.3,5.3,0,0,1-.26-5.29c1-1.88,2-3.77,3.2-5.57A3.83,3.83,0,0,1,245,32.42a2.51,2.51,0,0,1,2.31,3.52c-.12.3-.44.68-.71.72a1.1,1.1,0,0,1-.85-.52c-.3-.53-.4-1.31-1.15-1.24a3.45,3.45,0,0,0-1.84.67A9.34,9.34,0,0,0,239.45,41.17Z"/>
    <path d="M299,46.42c-1-.3-1.88-.53-2.74-.84a3.16,3.16,0,0,1-1.05-.72,1.14,1.14,0,0,1-.12-1.52,1,1,0,0,1,1.29-.36,8.27,8.27,0,0,0,.85.34c1.07.23,2.14.48,3.22.62a3.18,3.18,0,0,0,1.17-.33,3.34,3.34,0,0,0-.49-1.08c-.56-.55-1.24-1-1.85-1.5a15,15,0,0,1-1.93-1.68c-1.24-1.45-1.1-2.62.49-3.7a5.25,5.25,0,0,1,2.21-.75A1.31,1.31,0,0,1,301.54,36c0,.73-.5,1.07-1.18,1.17a3.32,3.32,0,0,0-.54.1c-.55.17-.67.52-.24.93a21.57,21.57,0,0,0,1.7,1.39,20.14,20.14,0,0,1,2.44,1.94c1.79,1.94,1.07,4.13-1.51,4.63A29.35,29.35,0,0,1,299,46.42Z"/>
    <path d="M289.45,46.49a2.31,2.31,0,0,1-1.92-1.86,12.89,12.89,0,0,1-.27-2.55,1.7,1.7,0,0,0-1.11-1.86c-1-.38-1.08-1.25-.21-1.82a3.92,3.92,0,0,0,1.73-3.05,2.25,2.25,0,0,1,.17-.52c.19-.47.48-1,1-.8a1.61,1.61,0,0,1,.74.93c.25.65-.24,1.61.57,2a7.57,7.57,0,0,0,2,.31,9.34,9.34,0,0,1,1.24.31c.42.14.84.36.74.89s-.29,1.12-1,1.18-1.22,0-1.83,0c-1.33,0-1.72.38-1.86,1.73a6.87,6.87,0,0,0,0,1.28c.1,1.21.37,1.34,1.45.81.3-.15.88-.32,1-.21a2.1,2.1,0,0,1,.47,1.28C292.22,45.59,290.62,46.65,289.45,46.49Z"/>
    <path d="M253.92,37.54c-.14,1.34-.28,2.69-.42,4a5.21,5.21,0,0,0,.23,3.07,1.36,1.36,0,0,1,.13.53,1.34,1.34,0,0,1-1,1.36,1.05,1.05,0,0,1-1.22-1.08,16.52,16.52,0,0,1,0-3.29c.22-1.95.6-3.88.83-5.83.16-1.34.17-2.69.26-4a5.8,5.8,0,0,1,.09-.91c.1-.44.31-.93.82-.78a1.4,1.4,0,0,1,.74.89,4.28,4.28,0,0,1,0,1.46C254.25,34.49,254.08,36,253.92,37.54Z"/>
    <path d="M256.6,40.55a5.93,5.93,0,0,1,.36-1.18.94.94,0,0,1,.71-.46,1.08,1.08,0,0,1,.68.51,2.13,2.13,0,0,1,.24.87c.15,1.21.3,2.43.4,3.65a1.48,1.48,0,0,1-.26,1,1.61,1.61,0,0,1-1.07.51c-.26,0-.6-.39-.76-.68a2.48,2.48,0,0,1-.23-1.07C256.62,42.75,256.62,41.77,256.6,40.55Z"/>
    <path d="M258.5,36.67a1.12,1.12,0,0,1-.9-1.33,1.07,1.07,0,0,1,1.19-.85,1.23,1.23,0,0,1,.92,1.35A1.07,1.07,0,0,1,258.5,36.67Z"/>
  </g>
  <path d="M105.34,157.56c0-.19,0-.38,0-.57,0-.58.11-1.15.82-1.32a1.58,1.58,0,0,1,1.77.77,6.22,6.22,0,0,1,.42,1.63c.09.62.05,1.26.16,1.88a6.21,6.21,0,0,0,.46,1.19,7.11,7.11,0,0,0,1.12-.56c.51-.37.21-.76-.07-1.12a2.7,2.7,0,0,1-.13-2.87c1.14-2.73,2.26-5.47,3.52-8.14a269.42,269.42,0,0,1,13.49-24.66C151.5,79.15,190.45,58,194.68,53.24a13.05,13.05,0,0,1,1.64-1.55,1.23,1.23,0,0,1,1.84.14,1.11,1.11,0,0,1,0,1.68c-1.2,1.38-2.46,2.69-3.69,4-9.33,6.57-43.63,31.95-64.17,66.21-2.79,4.84-5.52,9.3-8.21,14-3.06,5.35-5.78,10.89-8.33,16.5-.52,1.14-.89,2.35-1.3,3.54a1.6,1.6,0,0,0,0,.54,2.55,2.55,0,0,0,.62-.22c.31-.21.56-.52.87-.71a1.57,1.57,0,0,1,2.06.26,1.41,1.41,0,0,1,.11,1.9,5.21,5.21,0,0,1-.86,1c-1.77,1.61-3.52,3.24-5.34,4.79a2,2,0,0,1-3.39-.77,9.83,9.83,0,0,1-.78-2.7C105.53,160.46,105.47,159,105.34,157.56Z"/>
  <path d="M107.64,171.12c-1.41-.1-2.86-.11-4.28-.31a3,3,0,0,1-2.33-3.55,3.51,3.51,0,0,1,3.42-2.41c.89.13,1.28.67,1.25,1.72s0,1.06,1,1.11c.75,0,1.51,0,2.26,0a1.72,1.72,0,0,0,1.88-1.22c.34-1.12,1.3-1,2.18-1a2.49,2.49,0,0,1,2.25,1.73,1.63,1.63,0,0,1-.48,2,6,6,0,0,1-2.25,1.27C110.95,170.83,109.31,170.92,107.64,171.12Z"/>
  <g>
    <path d="M79.76,106.91c.28-1.27.92-1.79,2-1.38,1.28.47,1.73-.1,2.21-1a60.85,60.85,0,0,1,17.19-20.58c16.49-14.64,52.3-23,66.55-26.79,3.7-1,7.41-1.93,11.09-3,1.6-.46,3.14-1.13,4.71-1.71a8.8,8.8,0,0,1,1.34-.49,1.89,1.89,0,0,1,2.31,1.22,2.13,2.13,0,0,1-1.11,2.6,11.82,11.82,0,0,1-1.82.57c-5.69,1.57-11.38,3.14-17.08,4.68-8.76,2.37-44.78,13.49-52.54,18.16-3.89,2.34-7.72,4.81-11.39,7.48A52.91,52.91,0,0,0,88.5,103.45c-.71,1.25-1.42,2.49-2.1,3.76a.67.67,0,0,0,.05.63.8.8,0,0,0,.66,0c.51-.21,1-.53,1.51-.72a5.69,5.69,0,0,1,1.61-.41c.8,0,1.63,0,2,.93a1.73,1.73,0,0,1-.89,2.22c-1.14.74-2.34,1.37-3.48,2.1q-2.11,1.35-4.16,2.8C82,116,80.28,115.4,80,113.31S79.83,108.86,79.76,106.91Z"/>
    <path d="M77.24,122.69c-2.17-.55-4.18-1.16-5.47-3.17s-1.17-3.64.57-5.11a14.23,14.23,0,0,1,3.29-1.84,1.27,1.27,0,0,1,1.82.63,1.61,1.61,0,0,1-.44,2c-.4.37-.94.58-1.38.93s-.75.63-.69.83a2,2,0,0,0,.84,1,3.45,3.45,0,0,0,1.36.42c1.65.22,3.31.46,5,.55,2,.11,2,0,2-2.05.07-1.63,1.2-2.31,2.56-1.46a4.8,4.8,0,0,1,2.1,2.8A2.61,2.61,0,0,1,88,121a7,7,0,0,1-4.78,1.89C81.21,122.88,79.22,122.75,77.24,122.69Z"/>
  </g>
  <g>
    <path d="M365.19,94.13c.18,1.6-.54,2.31-2.14,2.08a36.18,36.18,0,0,1-3.65-.7,3.76,3.76,0,0,1-1.35-.77,1.2,1.2,0,0,1-.53-1.39,1.51,1.51,0,0,1,1.36-1,4.35,4.35,0,0,1,.7,0h.49c-.09-.2-.17-.4-.26-.59s-.08-.09-.12-.13A181.1,181.1,0,0,0,345.08,78a80.35,80.35,0,0,0-14.35-8.75,193.24,193.24,0,0,0-27.58-11.1c-3-1-6.1-1.83-9.15-2.76a7.3,7.3,0,0,1-1.77-.77,1.26,1.26,0,0,1-.65-1.65c.29-.59.79-.77,1.66-.5,4.35,1.32,8.72,2.57,13,4A201.83,201.83,0,0,1,330.1,66a82.7,82.7,0,0,1,23.68,16.28c2.28,2.31,4.67,4.52,7,6.77.73.7.75.69,1.21-.36a4,4,0,0,1,.3-.64,1.18,1.18,0,0,1,2.05,0,1.8,1.8,0,0,1,.31.81C364.86,90.61,365,92.37,365.19,94.13Z"/>
    <path d="M364.71,103.91l-3.55-.28a3.77,3.77,0,0,1-2.64-1.55,2.44,2.44,0,0,1,.22-3.4c1.23-1.16,2.39-.88,3,.73a2.4,2.4,0,0,0,2.54,1.14.61.61,0,0,0,.29-.46c0-.34-.09-.7-.08-1,0-1,.35-1.49,1.34-1.49a22.82,22.82,0,0,1,3.73.36,2.38,2.38,0,0,1,1.68,1.45c1,2,.54,3.23-1.6,3.77-1.62.41-3.28.64-4.92.95Z"/>
  </g>
  <path d="M205.41,56.89c-.1-1.21-1.18-1.81-2-1.3A4.84,4.84,0,0,0,202,57.07c-4.35,6.76-13.77,102-14.13,109-.23,4.39-.83,8.77-1.3,13.15,0,.3-.3.57-.46.86a3.75,3.75,0,0,1-.78-.59c-.64-.81-1.23-1.67-1.85-2.5a2,2,0,0,0-2.26-.84c-1.07.31-1.12,1.24-1.21,2.08a2.64,2.64,0,0,0,.22,1.5q1.93,3.37,4,6.66a5.36,5.36,0,0,0,1.46,1.44,2.26,2.26,0,0,0,2.88-.08,24.08,24.08,0,0,0,6-7.1,7.2,7.2,0,0,0,.54-1.46,1.61,1.61,0,0,0-.77-2.2,1.49,1.49,0,0,0-2,.65c-.51.69-.89,1.48-1.42,2.16a5.28,5.28,0,0,1-1.12.85,5.67,5.67,0,0,1-.1-1.22c.26-2,.65-3.92.82-5.89.44-5,.74-10,1.21-15S205.14,57.48,205.41,56.89Z"/>
  <path d="M190.56,195c.85-.15,1.71-.26,2.55-.45a4.06,4.06,0,0,0,3.22-3.88,2.77,2.77,0,0,0-2-3,14.55,14.55,0,0,0-2.26-.57,1.7,1.7,0,0,0-2,.87,1.56,1.56,0,0,0,.58,2.05,6.23,6.23,0,0,1,.66.72,4.25,4.25,0,0,1-.88.37,16.7,16.7,0,0,1-6.7-.17c-.81-.19-1.25-.51-1-1.42a2.48,2.48,0,0,0,0-1,1.34,1.34,0,0,0-2.15-1,9.73,9.73,0,0,0-2.33,2.7,2.26,2.26,0,0,0,.93,2.95,6,6,0,0,0,1.86.88A25.08,25.08,0,0,0,190.56,195Z"/>
  <g>
    <path d="M80.09,166.3l-.41.6a11,11,0,0,1-2.26,2.55,4.38,4.38,0,0,1-1.27.73,1.63,1.63,0,0,1-1.95-.79,3.82,3.82,0,0,1-.3-1.76,17.28,17.28,0,0,1,.82-4.46c.27-.87.59-1.73.89-2.59.05-.15.1-.31.16-.46a.5.5,0,0,1,.61-.32.47.47,0,0,1,.29.61c-.1.34-.22.68-.33,1-.35,1-.72,2-1,3.1a17.29,17.29,0,0,0-.46,2.89,9,9,0,0,0,0,1.1,1.47,1.47,0,0,0,.15.49.39.39,0,0,0,.45.25,2.36,2.36,0,0,0,.58-.18,5.12,5.12,0,0,0,1.06-.74A10.45,10.45,0,0,0,79,166.21a22.4,22.4,0,0,0,1.88-3.31,14.28,14.28,0,0,0,.76-2.19,8,8,0,0,1,.29-.86c0-.11.12-.25.21-.28a.55.55,0,0,1,.54,0,.47.47,0,0,1,.2.49c0,.22-.11.44-.18.66-.21.74-.44,1.47-.65,2.2s-.39,1.4-.57,2.1a23.51,23.51,0,0,0-.45,2.65q-.11.9-.21,1.8c0,.15,0,.29,0,.44a.56.56,0,0,1-.5.46.48.48,0,0,1-.36-.22,1.19,1.19,0,0,1-.14-.8c.1-.94.21-1.88.31-2.82,0-.08,0-.16,0-.24Z"/>
    <path d="M93.47,161.08l0,.16c0,.11.09.14.2.13a.68.68,0,0,1,.24,0,.5.5,0,0,1,.4.38,2.66,2.66,0,0,1,0,1c-.07.84-.15,1.69-.23,2.53,0,.34-.07.68-.11,1a.31.31,0,0,0,.09.31.42.42,0,0,1-.05.67.38.38,0,0,0-.17.35c0,.39,0,.78,0,1.17a1.81,1.81,0,0,0,.13.69,2.07,2.07,0,0,1,.11.47.48.48,0,0,1-.92.27,3.28,3.28,0,0,1-.39-1.59c0-.27,0-.54,0-.81,0-.07,0-.14,0-.21s-.06,0-.08,0a9.37,9.37,0,0,0-.92.22,1.36,1.36,0,0,0-.36.28v0c-.33.24-.31.64-.44,1s-.19.61-.31.9a1.36,1.36,0,0,1-.29.41.31.31,0,0,1-.38.08c-.16-.09-.33-.16-.33-.4a2,2,0,0,1,.1-.65c.49-1.38,1-2.77,1.47-4.15.33-.91.68-1.81,1-2.72.16-.43.33-.85.51-1.27s.22-.32.51-.22Zm-.19,2.63a8,8,0,0,0-1.47,2.94H92l.72-.15c.21,0,.22,0,.25-.25q.12-.86.22-1.72C93.23,164.25,93.25,164,93.28,163.71Z"/>
    <path d="M84.46,170.18l-.92-.09a.78.78,0,0,1-.67-.7.28.28,0,0,1,.29-.31,8.16,8.16,0,0,1,1.07,0,3.34,3.34,0,0,0,2.29-.6c.22-.15.45-.3.66-.46s.24-.26.14-.51a1.78,1.78,0,0,0-.93-1c-.86-.39-1.67-.88-2.51-1.32a1.1,1.1,0,0,1-.5-1.54,2,2,0,0,1,.32-.49,7,7,0,0,1,2.2-1.68,7,7,0,0,1,3.55-.84A.54.54,0,0,1,90,161a.24.24,0,0,1,0,.25.74.74,0,0,1-.48.35l-.51.07a6.59,6.59,0,0,0-1.47.34A7.37,7.37,0,0,0,85,163.3c-.18.15-.34.3-.51.46a1.22,1.22,0,0,0-.19.25c-.1.17-.09.24.09.33l2.21,1.15a4,4,0,0,1,1.08.74,3.3,3.3,0,0,1,.68,1.15,1,1,0,0,1-.25,1.17,5.26,5.26,0,0,1-3,1.62l-.15,0Z"/>
  </g>
  <g>
    <path d="M205.75,189.83l-.41.6a11,11,0,0,1-2.26,2.55,4.38,4.38,0,0,1-1.27.73,1.63,1.63,0,0,1-1.95-.79,3.82,3.82,0,0,1-.3-1.76,17.28,17.28,0,0,1,.82-4.46c.27-.87.59-1.73.89-2.59.05-.15.1-.31.16-.46a.5.5,0,0,1,.61-.32.47.47,0,0,1,.29.61c-.1.34-.22.68-.33,1-.35,1-.72,2-1,3.1a17.29,17.29,0,0,0-.46,2.89,9,9,0,0,0,0,1.1,1.47,1.47,0,0,0,.15.49.39.39,0,0,0,.45.25,2.36,2.36,0,0,0,.58-.18,5.12,5.12,0,0,0,1.06-.74,10.45,10.45,0,0,0,1.82-2.13,22.4,22.4,0,0,0,1.88-3.31,14.28,14.28,0,0,0,.76-2.19,8,8,0,0,1,.29-.86c0-.11.12-.25.21-.28a.55.55,0,0,1,.54,0,.47.47,0,0,1,.2.49c0,.22-.11.44-.18.66-.21.74-.44,1.47-.65,2.2s-.39,1.4-.57,2.1a23.51,23.51,0,0,0-.45,2.65q-.11.9-.21,1.8c0,.15,0,.29,0,.44a.56.56,0,0,1-.5.46.48.48,0,0,1-.36-.22,1.19,1.19,0,0,1-.14-.8c.1-.94.21-1.88.31-2.82,0-.08,0-.16,0-.24Z"/>
    <path d="M219.13,184.61l0,.16c0,.11.09.14.2.13a.68.68,0,0,1,.24,0,.5.5,0,0,1,.4.38,2.66,2.66,0,0,1,0,1c-.07.84-.15,1.69-.23,2.53,0,.34-.07.68-.11,1a.31.31,0,0,0,.09.31.42.42,0,0,1-.05.67.38.38,0,0,0-.17.35c0,.39,0,.78,0,1.17a1.81,1.81,0,0,0,.13.69,2.07,2.07,0,0,1,.11.47.48.48,0,0,1-.92.27,3.28,3.28,0,0,1-.39-1.59c0-.27,0-.54,0-.81,0-.07,0-.14,0-.21s-.06,0-.08,0a9.37,9.37,0,0,0-.92.22,1.36,1.36,0,0,0-.36.28v0c-.33.24-.31.64-.44,1s-.19.61-.31.9a1.36,1.36,0,0,1-.29.41.31.31,0,0,1-.38.08c-.16-.09-.33-.16-.33-.4a2,2,0,0,1,.1-.65c.49-1.38,1-2.77,1.47-4.15.33-.91.68-1.81,1-2.72.16-.43.33-.85.51-1.27s.22-.32.51-.22Zm-.19,2.63a8,8,0,0,0-1.47,2.94h.19l.72-.15c.21,0,.22,0,.25-.25q.12-.86.22-1.72C218.89,187.78,218.92,187.51,218.95,187.24Z"/>
    <path d="M210.12,193.7l-.92-.09a.78.78,0,0,1-.67-.7.28.28,0,0,1,.29-.31,8.16,8.16,0,0,1,1.07,0,3.34,3.34,0,0,0,2.29-.6c.22-.15.45-.3.66-.46s.24-.26.14-.51a1.78,1.78,0,0,0-.93-1c-.86-.39-1.67-.88-2.51-1.32a1.1,1.1,0,0,1-.5-1.54,2,2,0,0,1,.32-.49,7,7,0,0,1,2.2-1.68,7,7,0,0,1,3.55-.84.54.54,0,0,1,.55.33.24.24,0,0,1,0,.25.74.74,0,0,1-.48.35l-.51.07a6.59,6.59,0,0,0-1.47.34,7.37,7.37,0,0,0-2.49,1.31c-.18.15-.34.3-.51.46a1.22,1.22,0,0,0-.19.25c-.1.17-.09.24.09.33l2.21,1.15a4,4,0,0,1,1.08.74,3.3,3.3,0,0,1,.68,1.15,1,1,0,0,1-.25,1.17,5.26,5.26,0,0,1-3,1.62l-.15,0Z"/>
  </g>
  <g>
    <path d="M51.24,128.32c0,.08,0,.13-.06.18a2.49,2.49,0,0,1-.2.46c-.35.51-.77.51-1.31.21a1.11,1.11,0,0,1-.55-.83c-.11-.58-.2-1.16-.3-1.75l0-.24-.39.36a2.81,2.81,0,0,0-.9,1.72,4.51,4.51,0,0,1-.1.55c-.07.25-.13.28-.38.25l-.23,0a.54.54,0,0,1-.46-.56c0-.31,0-.61,0-.92s0-.87.08-1.3.09-.78.15-1.17a.46.46,0,0,1,.77-.28.7.7,0,0,1,.28.5,1.72,1.72,0,0,0,0,.2c.21-.17.38-.34.57-.46a8.66,8.66,0,0,1,.79-.46.78.78,0,0,1,.66,0c.19.08.24.3.3.49a2.1,2.1,0,0,1,0,.88,3.91,3.91,0,0,0,.24,1.77.38.38,0,0,0,.06.08l.73-.17c0-.19,0-.38,0-.58a1.91,1.91,0,0,1,1.05-1.76,1,1,0,0,1,.49-.07c.05,0,.11.09.16.15s.23.18.37,0a1.2,1.2,0,0,1,.94-.42,3.5,3.5,0,0,1,1.23.25c.29.09.38.3.55.48a2,2,0,0,1,.47.87.69.69,0,0,0,.74.51c.35,0,.71,0,1.09,0a.71.71,0,0,0,0-.15,2.61,2.61,0,0,1,2-2,3.34,3.34,0,0,1,.88,0,.87.87,0,0,1,.8,1c0,.3-.17.4-.46.33l-.19-.07a1.28,1.28,0,0,0-1.45.27,1.09,1.09,0,0,0-.47.76.62.62,0,0,0,.49.7,1.16,1.16,0,0,0,.61,0,3.58,3.58,0,0,0,1.37-.86l0,0a1.58,1.58,0,0,0,.64-1.18c.21-.93.43-1.86.65-2.8.15-.65.3-1.31.47-2,.1-.38.21-.76.33-1.14s.19-.37.53-.49a.8.8,0,0,1,.44,1c-.16.72-.35,1.44-.51,2.16-.34,1.55-.67,3.1-1,4.65-.13.58-.26,1.15-.39,1.73a1.19,1.19,0,0,1-.08.25.31.31,0,0,1-.36.2.87.87,0,0,1-.64-.38,1.48,1.48,0,0,1-.11-.42l-.26.13a3.08,3.08,0,0,1-1,.4,2.33,2.33,0,0,1-2-.59,1.13,1.13,0,0,1-.37-.71,1.4,1.4,0,0,1-.93.39,2.45,2.45,0,0,1-1.54-.43l-.22-.15-.28.25a3.42,3.42,0,0,1-1.54.89,1.93,1.93,0,0,1-.64,0,2.6,2.6,0,0,1-1.59-.65Zm3.19-2.08c-.24,0-.34.06-.43.19a1.74,1.74,0,0,0-.29.89c0,.18.08.23.24.14a2.09,2.09,0,0,0,.74-.7c.08-.12.15-.27,0-.38S54.53,126.28,54.42,126.24Zm-1.81,1.5a3.25,3.25,0,0,0,0-1.07.72.72,0,0,0-.4.64A.57.57,0,0,0,52.62,127.75Z"/>
    <path d="M69.68,127.83a3.83,3.83,0,0,1-1.1,1.08,3.57,3.57,0,0,1-2.4.56,1.81,1.81,0,0,1-1.29-.7,1.09,1.09,0,0,1-.21-.48,3.6,3.6,0,0,1,.34-2.1,2.88,2.88,0,0,1,1-1.33,3.29,3.29,0,0,1,1.87-.54c.14,0,.28,0,.41,0a1.28,1.28,0,0,1,1,.36.69.69,0,0,0,.57.26l.14,0a.36.36,0,0,1,.55.3c.12.64.23,1.28.38,1.91a3.9,3.9,0,0,0,.33.79.75.75,0,0,0,.45.36l.58.22a.34.34,0,0,1,.26.32.42.42,0,0,1-.2.4,1.12,1.12,0,0,1-1.1.11A2.2,2.2,0,0,1,69.82,128l-.06-.13Zm-2.09.12a2.19,2.19,0,0,0,1-.67,1.43,1.43,0,0,0,.3-1.46.48.48,0,0,0-.49-.38,3.24,3.24,0,0,0-1.57.35,1.11,1.11,0,0,0-.39,1.64.67.67,0,0,0,.34.21,1,1,0,0,0,.35,0C67.45,127.64,67.45,127.64,67.59,128Z"/>
    <path d="M32.5,125.81a11,11,0,0,1,1-4.58,6.63,6.63,0,0,1,1-1.45,8.67,8.67,0,0,1,1.74-1.55,3.43,3.43,0,0,1,1.57-.58,2.23,2.23,0,0,1,1.4.28l.15.1a1.49,1.49,0,0,1,.12,1.91.68.68,0,0,1-.64.21.53.53,0,0,1-.18-.09,1.45,1.45,0,0,1-.21-.15.4.4,0,0,1-.13-.17,1.23,1.23,0,0,1,0-.32c0-.14,0-.28.22-.27a.21.21,0,0,0,0-.41,1.73,1.73,0,0,0-1,.15,5.34,5.34,0,0,0-1.38,1,6.91,6.91,0,0,0-1.7,2.11,8.18,8.18,0,0,0-.75,2.63,11.13,11.13,0,0,0-.09,1.12,6.2,6.2,0,0,0,.07,1.06,1.1,1.1,0,0,0,1.25.85,4,4,0,0,0,1.84-.66,1.64,1.64,0,0,1,.42-.21.36.36,0,0,1,.52.4,1.12,1.12,0,0,1-.54.94,4.43,4.43,0,0,1-1.6.68,2.8,2.8,0,0,1-1.94-.32,1.44,1.44,0,0,1-.47-.43,3,3,0,0,1-.56-1.6C32.55,126.18,32.52,126,32.5,125.81Z"/>
    <path d="M43.13,128.16l-.22.31a1.75,1.75,0,0,1-1.78.8,2.86,2.86,0,0,1-1-.33,1.54,1.54,0,0,1-.79-1.36,6.52,6.52,0,0,1,.32-2,2,2,0,0,1,.53-.91.65.65,0,0,1,.62-.26.74.74,0,0,0,.32-.06,1.92,1.92,0,0,1,1.5.26l.15.08a.8.8,0,0,1,.48.72,2.07,2.07,0,0,0,.06.38c0,.25.11.5.15.75a.77.77,0,0,0,.82.71c.27,0,.53,0,.8-.06a1.63,1.63,0,0,1,.41,0c.31.06.39.28.2.54a1.59,1.59,0,0,1-1.2.66,3.15,3.15,0,0,1-1.1-.17Zm-2.71-.78c-.08.31-.05.41.19.55a1,1,0,0,0,1,0,1.56,1.56,0,0,0,.55-.71c.09-.18,0-.33,0-.49s0-.08,0-.12c0-.29-.05-.59-.07-.88s-.17-.45-.36-.41a1.48,1.48,0,0,0-.9.46.42.42,0,0,0,0,.63,3.08,3.08,0,0,1,.29.37.41.41,0,0,1,0,.45.37.37,0,0,1-.38.17Z"/>
  </g>
  <g>
    <path d="M320.13,115.11l.32-.34-.4-.15c0-.31.11-.41.37-.39a7.75,7.75,0,0,0,2.61-.45,5.49,5.49,0,0,0,1.94-.9l.27-.24a1.1,1.1,0,0,0-.24-.15c-1-.28-1.92-.73-2.88-1.08-.59-.22-1.2-.39-1.8-.58l-.84-.3a2.46,2.46,0,0,1-1-.79,1,1,0,0,1-.24-.65,2.4,2.4,0,0,1,1.12-2.2,10.25,10.25,0,0,1,4.66-1.77,11.2,11.2,0,0,1,2.62-.08,2.1,2.1,0,0,1,.65.12,1,1,0,0,1,.69.69.45.45,0,0,1-.41.59,6.11,6.11,0,0,1-.78,0,12.28,12.28,0,0,0-4.63.64,6.78,6.78,0,0,0-2.13,1.17l-.06,0c-.41.34-.4.57,0,.87a2.07,2.07,0,0,0,.62.31,32.73,32.73,0,0,1,4,1.46l1.27.52a1.67,1.67,0,0,1,.71.73.23.23,0,0,1,0,.14,2.2,2.2,0,0,1-.48,1.33,5.21,5.21,0,0,1-2.66,1.44c-.54.13-1.08.27-1.63.37A2,2,0,0,1,320.13,115.11Z"/>
    <path d="M331.29,113.89l.63-.89a.93.93,0,0,1,.83-.41,1,1,0,0,1,.69.3c.17.16.32.34.49.51l.28.27c.05-.2.09-.34.12-.48.13-.64.25-1.28.39-1.92a7.74,7.74,0,0,1,.28-1,.77.77,0,0,1,1.31-.3c.18.14.15.35.11.55s-.08.41-.15.61a26.64,26.64,0,0,0-.59,3,3.52,3.52,0,0,1-.33.93.83.83,0,0,1-.93.45,2.26,2.26,0,0,1-1.34-.66l-.35-.34c-.14.27-.26.5-.38.72a1.72,1.72,0,0,1-.24.37.9.9,0,0,1-.94.28A1.65,1.65,0,0,1,330,115a15.27,15.27,0,0,1-.91-2.62,5.32,5.32,0,0,0-.16-.53,2.85,2.85,0,0,1-.17-.83.61.61,0,0,1,.38-.65.66.66,0,0,1,.74.18,2.23,2.23,0,0,1,.38.63c.21.57.37,1.15.56,1.73A3.68,3.68,0,0,0,331.29,113.89Z"/>
    <path d="M348.94,112.24a19.81,19.81,0,0,0,.49-3.87,5,5,0,0,1,.09-1c.08-.44.48-.57.89-.38a.56.56,0,0,1,.36.61c0,.88,0,1.76-.09,2.63s-.21,1.44-.31,2.16-.19,1.22-.25,1.83a3.18,3.18,0,0,0,0,.8,1.15,1.15,0,0,1-.44,1,.5.5,0,0,1-.32,0,.94.94,0,0,1-.75-.69c0-.13-.07-.26-.11-.44l-.17.2c-.11.14-.21.28-.32.41-.44.51-.82.57-1.53.29a1.85,1.85,0,0,1-.53-.33,1.25,1.25,0,0,1-.45-1.05,3.92,3.92,0,0,1,.52-1.95,1.77,1.77,0,0,1,.65-.64,4.48,4.48,0,0,1,.82-.33.94.94,0,0,1,.38,0s.09.06.13.05c.38,0,.58.2.77.47Zm-.12.7a.51.51,0,0,1-.62.11.62.62,0,0,0-.69.1,1.73,1.73,0,0,0-.55.81.38.38,0,0,0,.08.44c.16.13.29,0,.43-.07s.54-.33.8-.49l.38.29Z"/>
    <path d="M339.41,114.6a3.88,3.88,0,0,0,.5,0c.69-.15,1.37-.33,2.06-.46s1.1-.16,1.65-.22c.28,0,.35,0,.44.28-.11.16-.2.32-.31.46a1.88,1.88,0,0,1-.86.61,17.13,17.13,0,0,1-2.87.85,2.5,2.5,0,0,1-1.21-.07,1.09,1.09,0,0,1-.79-1,1.55,1.55,0,0,0-.19-.84.71.71,0,0,1,0-.73l.34-.08.16.37.09-.41a5.9,5.9,0,0,1,.68-1.86,2.47,2.47,0,0,1,4.07-.15.8.8,0,0,1,.13.44,1.31,1.31,0,0,1-.75,1.26,17,17,0,0,1-2.77,1.32C339.63,114.35,339.47,114.34,339.41,114.6Zm2.45-3a2.25,2.25,0,0,0-.59,0,2,2,0,0,0-1.36.93,1.34,1.34,0,0,0-.08.24A4.29,4.29,0,0,0,341.85,111.63Z"/>
    <path d="M354,114.91a5.84,5.84,0,0,0,.58-.1l2.32-.64c.42-.12.46-.11.77.15a1.34,1.34,0,0,1-.77,1.1,11.33,11.33,0,0,1-2.39,1,2.24,2.24,0,0,1-2.44-1.28,2.81,2.81,0,0,1,.37-2.86,3.33,3.33,0,0,1,2.41-1.49,1.85,1.85,0,0,1,1.64.68.86.86,0,0,1,.21.62,2.54,2.54,0,0,1-.77,1.79A5.16,5.16,0,0,1,354,114.91Zm1.26-2.71a2,2,0,0,0-1.74,1.17A1.78,1.78,0,0,0,355.31,112.21Z"/>
    <path d="M361.74,113.29a3,3,0,0,0-1,1.35q-.26.75-.55,1.49a.48.48,0,0,1-.75.26.93.93,0,0,1-.58-.86c0-.47-.07-.93-.11-1.4a4.92,4.92,0,0,1,.18-1.76,1.25,1.25,0,0,1,.27-.43.25.25,0,0,1,.36-.06c.09.06.23-.16.34,0s.2.12.32.19v.25l0,.26c.25-.23.47-.43.69-.62a2.07,2.07,0,0,1,.86-.48,1.19,1.19,0,0,1,1.55,1.16c0,.37,0,.74,0,1.11,0,.21,0,.42,0,.63a1.08,1.08,0,0,0,.89,1.08c.19,0,.39,0,.59.08a.47.47,0,0,1,.36.74A1.09,1.09,0,0,1,364,117a2.68,2.68,0,0,1-2.24-1.88,7,7,0,0,1,0-1.11c0-.23,0-.46.07-.69Z"/>
  </g>
</svg>
