<svg width="400" height="300" viewBox="0 0 400 300" xmlns="http://www.w3.org/2000/svg"><rect width="400" height="300" fill="#ffffff"/><g opacity="0.5"><path d="M 40 60 A 44 44 0 0 1 102 30" fill="none" stroke="#e6bf73" stroke-width="2.4" stroke-dasharray="2 7" stroke-linecap="round"/><circle cx="68" cy="60" r="2.8" fill="#7faec0"/><circle cx="82" cy="54" r="2.8" fill="#e6bf73"/><circle cx="94" cy="62" r="2.8" fill="#7faec0"/></g>
<g opacity="0.5"><g stroke-linecap="round"><line x1="330" y1="58" x2="330" y2="40" stroke="#e6a79e" stroke-width="4"/><line x1="339" y1="58" x2="339" y2="28" stroke="#9fb2d6" stroke-width="4"/><line x1="348" y1="58" x2="348" y2="44" stroke="#e6a79e" stroke-width="4"/><line x1="357" y1="58" x2="357" y2="34" stroke="#9fb2d6" stroke-width="4"/></g></g>
<g opacity="0.5"><g fill="none"><polyline points="40,250 62,234 80,243 102,224" stroke="#7faec0" stroke-width="2.4" stroke-linecap="round" stroke-linejoin="round"/><circle cx="102" cy="224" r="3.2" fill="#7faec0"/></g></g>
<g opacity="0.5"><g fill="none"><circle cx="322" cy="250" r="9" stroke="#e8e8ed" stroke-width="3.5"/><path d="M 322 241 A 9 9 0 0 1 331 250" stroke="#9fb2d6" stroke-width="3.5"/></g></g>
<g opacity="0.45"><g stroke="#e6a79e" stroke-width="2" stroke-linecap="round"><line x1="194" y1="36" x2="206" y2="36"/><line x1="200" y1="30" x2="200" y2="42"/></g></g>
<g opacity="0.45"><path d="M 64 137 l 9 15 l -18 0 z" fill="none" stroke="#7faec0" stroke-width="2" stroke-linejoin="round"/></g><g fill="none" stroke="#1d1d1f" stroke-width="2.4" stroke-linecap="round" stroke-linejoin="round"><rect x="128" y="86" width="144" height="104" rx="10" fill="#f5f5f7"/><line x1="128" y1="104" x2="272" y2="104" stroke="#e8e8ed"/><circle cx="140" cy="95" r="3" fill="#e6a79e" stroke="none"/><circle cx="150" cy="95" r="3" fill="#e6bf73" stroke="none"/><circle cx="160" cy="95" r="3" fill="#8fc7a6" stroke="none"/><rect x="144" y="150" width="9" height="20" rx="2" fill="#1d607d" stroke="none" opacity="0.55"/><rect x="160" y="136" width="9" height="34" rx="2" fill="#1d607d" stroke="none" opacity="0.67"/><rect x="176" y="144" width="9" height="26" rx="2" fill="#1d607d" stroke="none" opacity="0.79"/><rect x="192" y="128" width="9" height="42" rx="2" fill="#1d607d" stroke="none" opacity="0.91"/><polyline points="218,168 230,150 242,158 256,134" stroke="#e6a79e" stroke-width="2.4"/><circle cx="240" cy="120" r="14" fill="none" stroke="#e8e8ed" stroke-width="6"/><path d="M 240 106 A 14 14 0 0 1 252 128" fill="none" stroke="#1d607d" stroke-width="6"/></g></svg>