<svg width="400" height="300" viewBox="0 0 400 300" xmlns="http://www.w3.org/2000/svg"><g opacity="0.5"><path d="M 40 60 A 44 44 0 0 1 102 30" fill="none" stroke="#e6bf73" stroke-width="2.4" stroke-dasharray="2 7" stroke-linecap="round"/><circle cx="68" cy="60" r="2.8" fill="#7faec0"/><circle cx="82" cy="54" r="2.8" fill="#e6bf73"/><circle cx="94" cy="62" r="2.8" fill="#7faec0"/></g>
<g opacity="0.5"><g stroke-linecap="round"><line x1="330" y1="58" x2="330" y2="40" stroke="#e6a79e" stroke-width="4"/><line x1="339" y1="58" x2="339" y2="28" stroke="#9fb2d6" stroke-width="4"/><line x1="348" y1="58" x2="348" y2="44" stroke="#e6a79e" stroke-width="4"/><line x1="357" y1="58" x2="357" y2="34" stroke="#9fb2d6" stroke-width="4"/></g></g>
<g opacity="0.5"><g fill="none"><polyline points="40,250 62,234 80,243 102,224" stroke="#7faec0" stroke-width="2.4" stroke-linecap="round" stroke-linejoin="round"/><circle cx="102" cy="224" r="3.2" fill="#7faec0"/></g></g>
<g opacity="0.5"><g fill="none"><circle cx="322" cy="250" r="9" stroke="#e8e8ed" stroke-width="3.5"/><path d="M 322 241 A 9 9 0 0 1 331 250" stroke="#9fb2d6" stroke-width="3.5"/></g></g>
<g opacity="0.45"><path d="M 64 137 l 9 15 l -18 0 z" fill="none" stroke="#e6a79e" stroke-width="2" stroke-linejoin="round"/></g>
<g opacity="0.45"><circle cx="348" cy="150" r="6" fill="none" stroke="#7faec0" stroke-width="2"/></g><g transform="translate(200 150) scale(1.12) translate(-200 -150)" fill="none" stroke="#1d1d1f" stroke-width="2.2" stroke-linecap="round" stroke-linejoin="round"><path d="M 124 150 A 44 44 0 0 1 212 150" stroke="#e8e8ed" stroke-width="6"/><path d="M 124 150 A 44 44 0 0 1 174 106.4" stroke="#1d607d" stroke-width="6"/><line x1="168" y1="150" x2="190" y2="116" stroke="#1d1d1f" stroke-width="2.8"/><circle cx="168" cy="150" r="5" fill="#1d1d1f" stroke="none"/><rect x="226" y="110" width="86" height="64" rx="8" fill="#f5f5f7"/><polyline points="234,150 248,138 260,144 274,124 288,134 304,118" stroke="#1d607d" stroke-width="2.6"/><circle cx="304" cy="118" r="3.2" fill="#1d607d" stroke="none"/></g></svg>