<?xml version="1.0" standalone="no"?>
<!DOCTYPE svg PUBLIC "-//W3C//DTD SVG 20010904//EN"
 "http://www.w3.org/TR/2001/REC-SVG-20010904/DTD/svg10.dtd">
<svg version="1.0" xmlns="http://www.w3.org/2000/svg"
 width="700.000000pt" height="700.000000pt" viewBox="0 0 700.000000 700.000000"
 preserveAspectRatio="xMidYMid meet">
<metadata>
Created by potrace 1.11, written by Peter Selinger 2001-2013
</metadata>
<g transform="translate(0.000000,700.000000) scale(0.100000,-0.100000)"
fill="#000000" stroke="none">
<path d="M3296 6529 c-147 -17 -290 -61 -429 -131 -89 -46 -207 -136 -207
-159 0 -18 37 -8 94 27 234 141 423 193 785 214 278 17 481 0 896 -76 182 -33
226 -44 343 -85 190 -67 356 -282 424 -552 19 -77 20 -99 14 -347 -3 -146 -9
-278 -12 -295 -4 -16 -4 -27 0 -24 10 10 45 258 52 374 7 128 -8 305 -37 420
-11 44 -41 122 -66 174 -83 172 -244 301 -413 331 -36 6 -191 36 -344 66 -241
46 -306 55 -470 64 -219 11 -529 11 -630 -1z"/>
<path d="M2598 6193 c-41 -47 -167 -332 -192 -437 -7 -29 -7 -29 32 -24 71 10
114 40 272 195 l157 153 794 -90 c437 -49 813 -92 837 -95 33 -5 42 -3 42 8 0
65 -440 127 -1265 177 -192 12 -278 23 -349 47 -46 15 -51 14 -80 -2 -39 -23
-155 -116 -271 -219 -107 -95 -121 -87 -54 30 58 101 103 152 137 156 36 4 40
34 10 78 -28 41 -48 48 -70 23z"/>
<path d="M3596 5793 c-131 -28 -258 -92 -356 -180 -46 -41 -54 -45 -72 -34
-180 112 -391 120 -543 19 -113 -75 -211 -208 -262 -356 -45 -132 -35 -352 17
-352 29 0 32 15 14 77 -42 144 29 361 165 505 117 125 261 172 407 134 68 -18
169 -60 178 -74 3 -6 -12 -36 -34 -69 -89 -135 -126 -278 -117 -462 6 -133 23
-205 73 -310 123 -262 338 -401 618 -401 219 0 419 85 580 245 146 146 216
298 224 492 7 174 -31 314 -123 453 -165 249 -477 376 -769 313z m359 -67
c110 -35 197 -88 280 -172 83 -83 136 -169 172 -279 23 -70 27 -97 27 -215 1
-122 -2 -142 -26 -208 -41 -112 -84 -178 -183 -277 -161 -161 -332 -235 -545
-235 -177 0 -306 55 -435 184 -63 63 -90 100 -122 166 -64 130 -77 192 -78
355 0 154 15 220 76 336 91 171 289 322 469 358 30 6 64 13 75 15 51 12 213
-4 290 -28z"/>
<path d="M3679 5143 c-88 -54 -72 -191 26 -223 103 -34 195 85 139 180 -34 56
-111 77 -165 43z"/>
<path d="M4846 5625 c-3 -8 10 -44 29 -79 19 -35 43 -91 54 -125 24 -73 45
-241 37 -296 -5 -35 -4 -37 6 -20 20 31 16 235 -6 320 -29 112 -75 215 -96
215 -10 0 -20 -7 -24 -15z"/>
<path d="M2791 5106 c-57 -32 -68 -115 -22 -165 39 -41 82 -42 122 -2 77 78
-8 220 -100 167z"/>
<path d="M5067 4988 c-20 -5 -57 -29 -80 -52 -24 -22 -34 -34 -23 -25 122 97
277 72 353 -59 52 -88 24 -176 -75 -247 -36 -25 -55 -30 -115 -33 l-73 -4 -37
-126 c-106 -362 -179 -791 -176 -1027 1 -47 5 -28 20 85 36 269 96 549 183
854 25 87 44 162 41 166 -3 5 -1 11 5 15 5 3 10 1 10 -4 0 -17 81 -12 122 7
75 36 140 110 158 184 39 152 -149 312 -313 266z"/>
<path d="M5078 4878 c-16 -5 -28 -14 -28 -19 0 -5 0 -12 0 -16 0 -4 21 -9 46
-10 57 -4 98 -22 102 -45 5 -26 -74 -105 -150 -150 -74 -44 -80 -68 -11 -44
131 46 193 110 193 196 0 79 -69 119 -152 88z"/>
<path d="M2640 4794 c-211 -98 -290 -292 -168 -413 22 -22 48 -43 59 -46 11
-4 18 -12 16 -18 -2 -7 -11 -37 -20 -67 -25 -86 -71 -192 -111 -254 -20 -31
-36 -60 -36 -64 0 -15 94 -86 168 -129 181 -102 451 -167 792 -188 97 -6 111
-10 195 -51 168 -82 305 -210 341 -318 10 -28 20 -75 23 -105 l6 -55 60 -18
c124 -38 268 -20 376 47 163 101 263 287 263 490 0 91 -3 106 -31 165 -51 109
-128 169 -249 195 -98 21 -150 19 -234 -10 -199 -68 -361 -90 -602 -82 -247 8
-434 43 -681 131 -133 47 -267 105 -267 115 0 3 11 39 25 79 14 41 25 80 25
88 0 12 12 14 63 9 34 -4 68 -8 75 -10 20 -7 42 6 42 25 0 21 -19 30 -63 30
-57 0 -145 31 -186 67 -86 73 -72 177 39 276 50 45 139 87 184 87 26 0 51 24
41 40 -11 19 -89 10 -145 -16z m-71 -754 c21 -10 85 -37 142 -58 310 -117 547
-164 829 -165 219 0 396 27 556 84 149 54 337 4 407 -108 38 -61 51 -112 50
-198 -3 -188 -118 -377 -278 -456 -75 -37 -189 -48 -270 -27 l-50 13 -8 55
c-19 133 -117 263 -279 370 l-87 57 187 7 c103 3 208 9 234 12 l46 6 7 -45 c9
-56 26 -83 49 -74 22 9 20 30 -17 177 -29 114 -34 125 -56 128 -23 4 -24 2
-18 -45 4 -26 9 -58 13 -69 6 -21 2 -22 -113 -30 -175 -13 -592 -10 -718 5
-243 29 -442 80 -580 148 -75 38 -165 99 -165 113 0 14 64 120 73 120 4 0 25
-9 46 -20z"/>
<path d="M5040 3415 c-11 -13 -3 -24 48 -71 71 -64 92 -115 92 -223 0 -86 -26
-138 -98 -197 -160 -131 -436 -213 -727 -217 -336 -4 -633 116 -675 273 -13
49 -7 87 27 153 25 51 24 67 -7 67 -28 0 -73 -99 -76 -168 l-3 -57 -73 -7
c-185 -19 -392 -118 -504 -242 -79 -88 -84 -94 -84 -105 0 -6 11 -16 24 -22
l23 -11 -52 -77 c-155 -226 -279 -516 -344 -803 l-27 -123 -55 2 c-134 6 -254
58 -527 230 -197 123 -334 188 -383 181 -16 -3 -29 -2 -29 1 0 3 22 84 49 179
53 183 53 199 12 236 -26 23 -95 17 -121 -11 -9 -10 -54 -151 -100 -313 -46
-162 -89 -302 -97 -311 -8 -9 -18 -33 -24 -53 -9 -33 -69 -106 -87 -106 -4 0
-21 9 -39 20 -40 24 -50 59 -59 211 l-7 115 32 36 c47 54 80 64 163 50 91 -16
98 -15 98 8 0 29 -41 42 -136 44 -72 1 -84 -2 -122 -27 -60 -39 -84 -92 -83
-184 1 -74 1 -74 -28 -79 -16 -4 -40 -17 -53 -31 -20 -21 -23 -37 -26 -113
l-4 -88 -46 -18 c-58 -22 -145 -107 -162 -158 -35 -106 59 -208 149 -161 18 9
50 34 72 56 39 39 39 39 86 29 66 -15 97 -5 143 48 23 25 39 39 36 31 -30 -86
-56 -193 -52 -207 5 -15 -9 -21 -111 -42 -65 -13 -113 -25 -108 -27 6 -1 420
-88 921 -192 l910 -190 469 100 c257 54 469 98 470 96 11 -13 26 -50 22 -54
-12 -12 -900 -194 -972 -200 -44 -3 -113 0 -155 6 -133 21 -1902 391 -1936
406 -34 14 -34 14 -34 -14 0 -16 6 -33 12 -38 7 -6 462 -101 1011 -213 l998
-203 549 113 549 114 49 -46 c95 -89 247 -142 456 -158 165 -13 277 -30 270
-42 -3 -5 2 -20 11 -34 15 -23 21 -25 58 -19 67 10 104 9 234 -5 100 -11 149
-12 265 -2 355 30 510 120 724 419 145 202 249 406 330 650 l48 142 35 -15
c46 -19 58 -13 72 38 26 99 -12 272 -98 448 -83 167 -142 223 -588 549 -198
145 -371 274 -384 287 -20 18 -26 38 -32 95 -11 97 -47 169 -111 220 -56 44
-60 45 -78 24z m-1799 -941 c93 -47 169 -90 169 -95 0 -6 -67 -177 -150 -381
-82 -204 -147 -374 -144 -379 3 -5 13 -9 24 -9 24 0 690 -138 713 -148 18 -7
18 -8 0 -23 -16 -14 -51 -9 -401 64 l-384 81 -846 -180 c-466 -99 -848 -179
-850 -178 -2 1 2 22 8 46 l12 45 43 -8 c54 -10 100 2 137 38 26 25 27 28 12
45 -16 17 -18 16 -46 -7 -22 -18 -41 -25 -73 -25 -24 0 -46 4 -49 8 -3 5 2 36
11 69 l17 61 55 11 c84 17 117 14 182 -19 62 -32 66 -45 25 -80 -22 -17 -20
-50 2 -50 10 0 30 12 44 28 29 30 91 169 82 183 -12 20 -42 8 -54 -21 -7 -17
-16 -32 -19 -35 -4 -2 -34 10 -67 26 -53 28 -66 30 -138 27 l-80 -3 -30 43
-30 42 30 30 c16 17 54 43 84 58 38 20 55 35 55 48 0 14 -6 19 -27 17 l-26 -2
19 67 c11 37 22 78 26 91 5 19 7 21 14 8 5 -8 25 -18 44 -21 64 -12 125 -44
125 -64 0 -27 48 -154 65 -171 16 -16 35 -7 35 17 0 9 -9 41 -20 71 -12 29
-20 57 -18 61 2 4 77 -39 167 -96 276 -174 398 -224 555 -227 61 -2 80 1 86
13 4 8 16 58 25 110 50 267 182 585 337 812 33 48 64 88 70 88 5 0 85 -39 179
-86z m-1611 -161 c0 -8 -34 -131 -75 -275 -81 -285 -67 -256 -168 -339 -26
-21 -24 -62 5 -106 l24 -37 -47 -164 c-26 -90 -49 -165 -51 -167 -10 -10 -78
17 -78 31 0 11 287 1028 305 1080 5 16 85 -6 85 -23z m4125 -384 c142 -26 316
-74 366 -99 23 -12 39 -28 39 -38 0 -26 -81 -262 -124 -362 -73 -167 -172
-333 -289 -482 -194 -249 -370 -328 -735 -331 -150 -1 -262 10 -262 25 0 5 16
30 35 56 92 119 137 286 115 421 -7 41 -14 80 -16 86 -3 7 20 19 58 29 85 24
171 71 235 130 66 60 64 56 175 335 49 124 97 238 105 252 l15 26 87 -14 c47
-7 136 -22 196 -34z m-4675 -187 c0 -55 20 -97 64 -137 39 -34 46 -47 51 -90
6 -45 4 -54 -25 -93 -30 -42 -32 -43 -83 -40 l-52 3 -12 75 c-6 41 -12 119
-12 173 -1 84 2 100 19 117 29 29 50 26 50 -8z m191 -207 c-11 -33 -20 -50
-20 -39 -1 12 -4 35 -7 51 -5 24 -2 31 18 40 12 6 24 10 25 9 1 -1 -6 -29 -16
-61z m-298 -101 c2 -50 -1 -56 -38 -94 -49 -51 -66 -61 -94 -53 -34 9 -52 53
-40 97 12 43 68 103 119 128 34 16 35 16 43 -4 4 -11 8 -45 10 -74z m3533 80
c58 -28 110 -97 144 -194 32 -89 51 -110 100 -110 28 0 32 -12 32 -108 0 -68
-6 -104 -27 -167 -27 -83 -77 -179 -118 -230 l-25 -29 -73 17 c-41 10 -139 22
-219 27 -223 14 -352 55 -447 143 -57 52 -85 107 -87 170 -1 42 3 52 27 73 15
13 37 24 48 24 11 0 19 7 19 16 0 9 7 14 17 12 23 -4 28 -26 7 -30 -14 -2 -8
-13 29 -49 70 -70 137 -89 137 -40 0 14 -13 27 -39 40 -21 11 -49 33 -63 49
-13 16 -28 27 -34 25 -6 -2 -17 3 -24 12 -7 8 -9 15 -4 15 5 0 2 5 -6 11 -11
7 -12 12 -3 15 8 4 6 18 -8 50 -10 25 -19 55 -19 67 0 34 36 86 65 93 48 12
73 -4 130 -81 56 -75 89 -101 135 -105 51 -4 67 1 109 36 32 28 41 42 39 62
-4 36 -26 39 -38 6 -15 -38 -32 -18 -37 43 -10 116 119 191 233 137z m-318
-119 c14 -4 22 -13 22 -26 0 -19 -4 -21 -31 -15 -17 3 -37 6 -43 6 -7 0 -22
13 -34 29 l-21 29 42 -9 c23 -5 52 -11 65 -14z m670 -397 c14 -19 -3 -130 -29
-181 -33 -64 -69 -107 -91 -107 -27 0 -34 29 -15 59 44 71 68 126 73 169 8 66
11 72 32 72 11 0 24 -6 30 -12z"/>
<path d="M4816 912 c-3 -6 -1 -14 5 -17 15 -10 25 3 12 16 -7 7 -13 7 -17 1z"/>
<path d="M4800 850 c0 -5 5 -10 10 -10 6 0 10 5 10 10 0 6 -4 10 -10 10 -5 0
-10 -4 -10 -10z"/>
<path d="M4772 799 c2 -6 8 -10 13 -10 5 0 11 4 13 10 2 6 -4 11 -13 11 -9 0
-15 -5 -13 -11z"/>
<path d="M4823 3254 c-4 -10 1 -22 12 -30 22 -16 24 -14 -50 -58 -127 -77
-320 -133 -550 -161 -145 -18 -267 -11 -338 19 -30 12 -34 18 -30 40 6 27 -7
33 -41 20 -17 -6 -21 -50 -8 -71 15 -23 101 -53 183 -64 138 -19 392 13 577
72 116 38 202 76 268 121 l51 35 18 -30 18 -30 14 27 c19 36 1 73 -52 103 -48
27 -64 29 -72 7z"/>
</g>
</svg>
